<?xml version="1.0" encoding="UTF-8" standalone="no"?>
<!DOCTYPE svg PUBLIC "-//W3C//DTD SVG 1.1//EN" "http://www.w3.org/Graphics/SVG/1.1/DTD/svg11.dtd">
<svg width="100%" height="100%" viewBox="0 0 821 132" version="1.1" xmlns="http://www.w3.org/2000/svg" xmlns:xlink="http://www.w3.org/1999/xlink" xml:space="preserve" xmlns:serif="http://www.serif.com/" style="fill-rule:evenodd;clip-rule:evenodd;stroke-linejoin:round;stroke-miterlimit:2;">
    <g transform="matrix(1,0,0,1,-4.4,-4.3)">
        <path d="M316.9,135.1L334.2,135.1L334.2,133.1L318.9,133.1L318.9,119.6L333.8,119.6L333.8,117.6L318.9,117.6L318.9,105.7L334.2,105.7L334.2,103.7L316.9,103.7L316.9,135.1ZM303.8,118.3C302.1,117.7 300.1,117.4 297.9,117.4C297.6,117.4 297.1,117.4 296.5,117.3C295.9,117.3 295.2,117.2 294.5,117C293.8,116.8 293,116.6 292.3,116.3C291.6,116 290.9,115.5 290.4,115C289.5,114.1 289.1,112.8 289.1,111.3C289.2,110.3 289.4,109.4 289.8,108.7C290.2,108 290.7,107.4 291.3,106.9C291.9,106.4 292.4,106.1 293.1,105.8C293.7,105.6 294.3,105.4 294.8,105.3C295.8,105.1 296.9,105 298.1,105C299.3,105 300.3,105.2 301.4,105.6C302.5,105.9 303.4,106.4 304.2,106.9C305,107.4 305.6,108.1 305.9,108.8L307.7,107.8C307.2,106.9 306.4,106.1 305.5,105.4C304.5,104.7 303.4,104.2 302.1,103.7C300.8,103.3 299.6,103.1 298.2,103C296.9,102.9 295.6,103 294.4,103.3C292.5,103.8 290.9,104.6 289.6,105.8C288.2,107.2 287.4,109 287.3,111.2C287.2,113.3 287.8,115 289.1,116.4C289.8,117.1 290.5,117.6 291.3,118C292.1,118.4 293,118.7 293.8,118.9C294.6,119.1 295.4,119.2 296.2,119.3C296.9,119.4 297.6,119.4 298,119.4C299.9,119.4 301.6,119.6 303,120.1C304.4,120.6 305.6,121.3 306.4,122.1C307.4,123.2 307.8,124.6 307.7,126.2C307.6,127.6 307.1,128.8 306.4,129.7C305.6,130.6 304.7,131.4 303.7,132C302.7,132.6 301.6,133 300.4,133.2C299.3,133.4 298.3,133.5 297.5,133.4C296.5,133.4 295.6,133.3 294.6,133C293.6,132.8 292.7,132.4 291.9,131.9C290.2,131 289,129.9 288.3,128.6L286.5,129.5C286.9,130.3 287.5,131 288.3,131.8C289,132.5 289.9,133.2 291,133.7C292,134.2 293.1,134.7 294.2,134.9C295.3,135.2 296.4,135.3 297.5,135.3L298.2,135.3C299.1,135.3 300.1,135.2 301.3,134.9C302.5,134.6 303.7,134.2 304.9,133.5C306.3,132.7 307.4,131.8 308.2,130.6C309.2,129.3 309.8,127.8 309.9,126.1C310.1,123.9 309.4,122 308,120.4C306.8,119.7 305.5,118.9 303.8,118.3ZM390.6,109.2C391.9,107.9 393.4,106.9 395.1,106.2C396.8,105.5 398.7,105.1 400.7,105.1C402.6,105.1 404.4,105.5 406.2,106.2C407.9,106.9 409.5,107.9 410.8,109.3L412.3,107.9C410.7,106.3 409,105.2 407.1,104.4C405.1,103.6 403,103.1 400.8,103.1C398.6,103.1 396.4,103.5 394.4,104.4C392.4,105.2 390.7,106.4 389.2,107.9C387.7,109.4 386.5,111.1 385.7,113.1C384.9,115.1 384.4,117.2 384.4,119.4C384.4,121.6 384.8,123.8 385.7,125.7C386.5,127.6 387.7,129.3 389.2,130.9C389.9,131.7 390.7,132.3 391.6,132.9C392.5,133.5 393.4,134 394.3,134.4C396.4,135.2 398.5,135.7 400.7,135.7C402.9,135.7 405,135.3 407,134.4C408.9,133.6 410.6,132.4 412.2,130.9L410.7,129.5C409.4,130.9 407.8,131.9 406.1,132.6C404.4,133.3 402.5,133.7 400.6,133.7C398.6,133.7 396.8,133.3 395,132.6C393.3,131.9 391.7,130.8 390.5,129.5C389.2,128.2 388.2,126.7 387.5,125C386.8,123.3 386.4,121.4 386.4,119.5C386.4,117.5 386.8,115.7 387.5,113.9C388.2,112.1 389.3,110.5 390.6,109.2ZM277.4,135.1L279.4,135.1L279.4,103.5L277.4,103.5L277.4,135.1ZM365,104.1L363.4,102.9L353,117L342.7,102.9L341.1,104.1L351.7,118.7L340.2,134.5L341.8,135.7L352.9,120.5L364,135.7L365.7,134.5L354.2,118.7L365,104.1ZM35,48.2L58.1,48.2C57.2,50.2 56,52.1 54.6,53.7C53.2,55.3 51.5,56.8 49.7,58C47.9,59.2 45.9,60.1 43.7,60.8C41.5,61.4 39.3,61.8 37,61.8C33.8,61.8 30.8,61.2 28,60C25.2,58.8 22.8,57.1 20.7,55C18.6,52.9 17,50.5 15.8,47.7C14.6,44.9 14,41.9 14,38.7C14,35.5 14.6,32.5 15.8,29.7C17,26.9 18.6,24.5 20.7,22.4C22.8,20.3 25.2,18.7 28,17.5C30.8,16.3 33.8,15.7 37,15.7C41,15.7 44.7,16.6 48.1,18.4C51.5,20.2 54.3,22.8 56.4,26.1L64.5,20.8C63,18.5 61.3,16.5 59.4,14.7C57.4,12.9 55.3,11.3 52.9,10C48,7.4 42.7,6 37,6C32.5,6 28.3,6.8 24.3,8.5C20.3,10.2 16.9,12.6 13.9,15.5C12.4,17.1 11,18.7 9.9,20.4C8.7,22.1 7.7,23.9 6.9,25.9C5.2,30 4.4,34.3 4.4,38.7C4.4,43.1 5.3,47.4 7,51.4C8.6,55.3 11,58.7 14,61.8C17,64.8 20.4,67.2 24.4,68.8C28.5,70.5 32.7,71.4 37.1,71.4C41,71.4 44.8,70.7 48.4,69.4C52,68.1 55.3,66.1 58.4,63.6C61.3,61.1 63.7,58.1 65.6,54.8C67.5,51.5 68.8,47.9 69.4,44.2L69.7,42.1C69.8,41.5 69.9,40.9 69.9,40.2L69.9,38.5L35,38.5L35,48.2ZM217.8,38.7C217.8,34.3 216.9,30 215.2,26C213.6,22.1 211.2,18.7 208.2,15.6C205.1,12.5 201.7,10.2 197.8,8.6C193.7,6.9 189.5,6 185.1,6C180.7,6 176.4,6.9 172.4,8.6C168.5,10.2 165.1,12.6 162,15.6C158.9,18.7 156.6,22.1 155,26C153.3,30.1 152.4,34.3 152.4,38.7C152.4,43.1 153.3,47.4 155,51.4C156.6,55.3 159,58.7 162,61.8C165.1,64.9 168.5,67.2 172.4,68.8C176.5,70.5 180.7,71.4 185.1,71.4C189.5,71.4 193.8,70.5 197.8,68.8C201.7,67.2 205.1,64.8 208.2,61.8C211.3,58.7 213.6,55.3 215.2,51.4C216.9,47.3 217.8,43.1 217.8,38.7ZM206.3,47.6C205.1,50.4 203.4,52.8 201.3,54.9C199.2,57 196.8,58.7 194,59.9C191.2,61.1 188.2,61.7 185,61.7C181.8,61.7 178.8,61.1 176,59.9C173.2,58.7 170.8,57 168.7,54.9C166.6,52.8 164.9,50.4 163.7,47.6C162.5,44.8 161.9,41.8 161.9,38.6C161.9,35.4 162.5,32.4 163.7,29.6C164.9,26.8 166.6,24.4 168.7,22.3C170.8,20.2 173.2,18.5 176,17.3C178.8,16.1 181.8,15.5 185,15.5C188.2,15.5 191.2,16.1 194,17.3C196.8,18.5 199.2,20.2 201.3,22.3C203.4,24.4 205.1,26.8 206.3,29.6C207.5,32.4 208.1,35.4 208.1,38.6C208.1,41.9 207.5,44.8 206.3,47.6ZM326,60.2L298.3,60.2L298.3,42.2L325.1,42.2L325.1,32.5L298.3,32.5L298.3,17.2L326,17.2L326,7.5L288.7,7.5L288.7,69.9L326,69.9L326,60.2ZM262.9,34.2C259.4,33 255.5,32.3 251.2,32.3C249.2,32.3 247,32 244.8,31.5C242.6,31 240.9,30.1 239.6,28.9C239.3,28.5 238.9,28 238.6,27.3C238.2,26.6 238.1,25.7 238.2,24.4C238.4,20 241,17.3 245.9,16.2C247.6,15.8 249.3,15.7 251.1,15.8C252.9,15.9 254.6,16.2 256.3,16.7C257.9,17.2 259.2,17.8 260.3,18.6C261.4,19.4 262.3,20.2 262.8,21.1L271.2,16.3C270.1,14.3 268.5,12.5 266.4,11C264.3,9.5 261.9,8.3 259.2,7.4C256.7,6.6 254.1,6.2 251.5,6.1C248.9,6 246.3,6.2 243.8,6.8C241.8,7.3 239.9,8 238.2,8.9C236.5,9.8 235,10.9 233.7,12.3C230.6,15.4 229,19.2 228.7,23.9C228.6,26.2 228.9,28.4 229.6,30.3C230.3,32.3 231.3,34 232.7,35.6C235.2,38.1 238.6,39.9 242.9,41C244.6,41.4 246.2,41.7 247.7,41.8C249.2,41.9 250.4,42 251.2,42C254.1,42 256.7,42.4 259,43.1C261.3,43.8 263.1,44.8 264.2,46.1C265.4,47.4 266,49.1 265.8,51.3C265.6,54.6 263.7,57.3 260.2,59.3C258.5,60.2 256.8,60.9 255,61.2C253.2,61.6 251.7,61.7 250.4,61.6L250.1,61.6C248.5,61.6 246.9,61.4 245.5,61C244,60.6 242.7,60 241.4,59.3C240.2,58.6 239.1,57.9 238.2,57C237.3,56.2 236.6,55.3 236.2,54.5L227.6,58.9C228.5,60.6 229.8,62.2 231.4,63.8C233,65.3 234.9,66.7 237,67.8C239,68.9 241.2,69.7 243.4,70.3C245.6,70.9 247.8,71.2 250,71.2L251.5,71.2C253.8,71.2 256.1,70.9 258.5,70.3C260.9,69.7 263.1,68.8 265.2,67.7C268,66.1 270.4,64.1 272.1,61.7C274.2,58.9 275.4,55.7 275.7,52.1C276.1,47.2 274.7,43 271.5,39.5C269.2,37.2 266.4,35.4 262.9,34.2ZM233.3,122.9L233.3,124C233.3,124.5 233.2,125 233.2,125.6C233.1,126.2 233,126.8 232.8,127.4C232.6,128 232.4,128.6 232,129.2C230.4,132.1 227.3,133.6 222.7,133.6C218.1,133.6 215,132.1 213.3,129.2C213,128.6 212.7,128 212.5,127.4C212.3,126.8 212.2,126.2 212.1,125.6C212,125 212,124.5 212,124L212,103.5L210,103.5L210,124.2C210,124.7 210.1,125.3 210.2,126C210.3,126.6 210.5,127.3 210.7,128C210.9,128.7 211.2,129.4 211.6,130.1C212.5,131.8 213.8,133 215.5,133.9C217.4,135 219.8,135.5 222.7,135.5C225.6,135.5 228,135 229.9,133.9C231.6,133 232.9,131.7 233.8,130.1C234.2,129.4 234.5,128.7 234.7,128C234.9,127.3 235.1,126.6 235.2,126C235.3,125.4 235.4,124.8 235.4,124.2L235.4,103.5L233.4,103.5L233.4,122.9L233.3,122.9ZM268.1,130.8L242.7,102.8L242.7,135.1L244.7,135.1L244.7,108.1L270.1,136.1L270.1,103.5L268.1,103.5L268.1,130.8ZM134.2,15.5C131.1,12.4 127.7,10.1 123.8,8.5C119.7,6.8 115.5,5.9 111.1,5.9C106.7,5.9 102.4,6.8 98.4,8.5C94.5,10.1 91.1,12.5 88,15.5C84.9,18.6 82.6,22 81,25.9C79.3,30 78.4,34.2 78.4,38.6C78.4,43 79.3,47.3 81,51.3C82.6,55.2 85,58.6 88,61.7C91.1,64.8 94.5,67.1 98.4,68.7C102.5,70.4 106.7,71.3 111.1,71.3C115.5,71.3 119.8,70.4 123.8,68.7C127.7,67.1 131.1,64.7 134.2,61.7C137.3,58.6 139.6,55.2 141.2,51.3C142.9,47.2 143.8,43 143.8,38.6C143.8,34.2 142.9,29.9 141.2,25.9C139.6,22.1 137.3,18.6 134.2,15.5ZM132.3,47.6C131.1,50.4 129.4,52.8 127.3,54.9C125.2,57 122.8,58.7 120,59.9C117.2,61.1 114.2,61.7 111,61.7C107.8,61.7 104.8,61.1 102,59.9C99.2,58.7 96.8,57 94.7,54.9C92.6,52.8 90.9,50.4 89.7,47.6C88.5,44.8 87.9,41.8 87.9,38.6C87.9,35.4 88.5,32.4 89.7,29.6C90.9,26.8 92.6,24.4 94.7,22.3C96.8,20.2 99.2,18.5 102,17.3C104.8,16.1 107.8,15.5 111,15.5C114.2,15.5 117.2,16.1 120,17.3C122.8,18.5 125.2,20.2 127.3,22.3C129.4,24.4 131.1,26.8 132.3,29.6C133.5,32.4 134.1,35.4 134.1,38.6C134.1,41.9 133.5,44.8 132.3,47.6ZM594,122.8L608.2,122.8C607.8,124.4 607.2,125.8 606.3,127.1C605.4,128.4 604.4,129.5 603.2,130.5C602,131.4 600.6,132.2 599.1,132.7C597.6,133.2 596,133.5 594.4,133.5C592.4,133.5 590.6,133.1 588.8,132.4C587.1,131.7 585.5,130.6 584.3,129.3C583,128 582,126.5 581.3,124.8C580.6,123.1 580.2,121.2 580.2,119.3C580.2,117.3 580.6,115.5 581.3,113.8C582,112.1 583.1,110.6 584.3,109.3C585.6,108 587.1,107 588.8,106.2C590.5,105.5 592.4,105.1 594.4,105.1C595.7,105.1 597,105.3 598.2,105.6C599.4,106 600.6,106.5 601.7,107.1C602.8,107.8 603.8,108.5 604.7,109.5C605.6,110.4 606.4,111.5 607,112.6L607.5,113.5L609.3,112.5L608.8,111.6C608.1,110.3 607.2,109.1 606.2,108C605.2,106.9 604,106 602.8,105.3C601.6,104.6 600.2,104 598.8,103.6C597.4,103.2 595.9,103 594.4,103C592.2,103 590.1,103.4 588,104.3C586,105.1 584.3,106.3 582.8,107.8C582.1,108.6 581.4,109.4 580.8,110.2C580.2,111.1 579.7,112 579.3,113C578.5,115 578,117.1 578,119.3C578,121.5 578.4,123.7 579.3,125.6C580.1,127.6 581.3,129.3 582.8,130.8C584.3,132.3 586.1,133.5 588,134.3C590.1,135.1 592.2,135.6 594.4,135.6C596.3,135.6 598.2,135.3 600.1,134.6C601,134.2 601.8,133.8 602.6,133.4C603.4,132.9 604.2,132.4 604.9,131.7C606.4,130.5 607.6,129 608.5,127.4C609.4,125.7 610.1,124 610.4,122.1L610.6,120.9L594,120.9L594,122.8ZM637.9,50.2L591.1,4.6L591.1,69.9L600.8,69.9L600.8,27.6L647.6,73.2L647.6,7.5L637.9,7.5L637.9,50.2ZM572.6,72L581.3,67.9L551.2,4.3L521.2,67.9L529.9,72L538.1,54.6L564.3,54.6L572.6,72ZM542.7,44.9L551.2,26.9L559.7,44.9L542.7,44.9ZM570.7,130.8L545.3,102.8L545.3,135.1L547.3,135.1L547.3,108.1L572.7,136.1L572.7,103.5L570.7,103.5L570.7,130.8ZM411.7,49.3L402,49.3C402,51 401.7,52.5 401,54C400.4,55.5 399.5,56.8 398.4,57.8C397.3,58.9 396,59.7 394.6,60.4C393.1,61 391.5,61.4 389.9,61.4C388.2,61.4 386.7,61.1 385.2,60.4C383.7,59.8 382.4,58.9 381.4,57.8C380.3,56.7 379.5,55.4 378.8,54C378.2,52.5 377.8,50.9 377.8,49.3C377.8,47.6 378.1,46.1 378.8,44.6C379.4,43.1 380.3,41.8 381.4,40.8C382.5,39.7 383.8,38.9 385.2,38.2C386.7,37.6 388.3,37.2 389.9,37.2L390.2,37.2C392.3,37.2 394.3,36.8 396.2,36C398.1,35.2 399.7,34 401.2,32.5C404,29.5 405.5,25.9 405.5,21.6C405.5,19.4 405.1,17.4 404.2,15.6C403.4,13.7 402.3,12.1 400.9,10.7C399.5,9.3 397.9,8.2 396,7.4C394.1,6.6 392.1,6.2 390,6.2C387.8,6.2 385.8,6.6 384,7.4C382.1,8.2 380.5,9.3 379,10.7C377.6,12.1 376.5,13.7 375.7,15.6C374.9,17.5 374.5,19.5 374.5,21.6C374.5,24.6 375.3,27.3 376.8,29.7L377.8,31.2C376.7,31.9 375.7,32.8 374.7,33.8C372.7,35.8 371.1,38.2 370,40.9C368.9,43.6 368.3,46.3 368.3,49.2C368.3,52.1 368.9,54.9 370,57.5C371.1,60.2 372.7,62.5 374.7,64.6C376.7,66.6 379.1,68.2 381.8,69.3C384.5,70.4 387.2,71 390.1,71C394.7,71 398.8,69.7 402.4,67.2L408.6,74.6L416,68.5L409,60.1C410.7,56.9 411.7,53.3 411.7,49.3ZM385.8,17.5C387,16.3 388.3,15.8 390,15.8C391.7,15.8 393,16.4 394.2,17.5C395.4,18.7 395.9,20 395.9,21.7C395.9,23.4 395.4,24.8 394.3,25.9C393.3,27 391.9,27.6 390.4,27.6L388.4,27.6C387.9,27.6 387.4,27.7 386.9,27.7L385,24.7C384.4,23.8 384.1,22.8 384.1,21.6C384,20.1 384.6,18.7 385.8,17.5ZM728.6,69.9L766,69.9L766,60.2L738.3,60.2L738.3,42.2L765.1,42.2L765.1,32.5L738.3,32.5L738.3,17.2L766,17.2L766,7.5L728.7,7.5L728.7,69.9L728.6,69.9ZM707.3,16.5C704.3,13.6 700.9,11.4 697,9.8C693.1,8.3 688.9,7.5 684.5,7.5L662.8,7.5L662.8,69.9L684.5,69.9C689.1,69.9 693.4,69.1 697.5,67.4C701.4,65.8 704.8,63.5 707.7,60.5C710.5,57.6 712.7,54.3 714.2,50.5C715.7,46.7 716.4,42.7 716.4,38.4C716.4,34.2 715.6,30.2 714.1,26.5C712.4,22.7 710.2,19.4 707.3,16.5ZM705,47.3C703.9,50 702.4,52.2 700.4,54.2C698.4,56.1 696.1,57.6 693.4,58.7C690.7,59.8 687.7,60.3 684.4,60.3L672.4,60.3L672.4,17.3L684.4,17.3C687.6,17.3 690.6,17.8 693.3,18.9C696,19.9 698.3,21.4 700.3,23.3C702.3,25.2 703.8,27.5 704.9,30C706,32.6 706.6,35.4 706.6,38.5C706.6,41.7 706.1,44.6 705,47.3ZM810.7,48.8C813.4,47.8 815.9,46.2 818,44.1C820,42.1 821.6,39.7 822.8,37C823.9,34.2 824.4,31.2 824.4,28.1C824.4,24.8 823.8,21.8 822.6,19.2C821.4,16.5 819.6,14.3 817.2,12.5C812.9,9.2 807.3,7.5 800.4,7.5L779.8,7.5L779.8,69.9L789.5,69.9L789.5,50.6L799.7,50.6L817.5,71.9L824.9,65.6L810.7,48.8ZM800.3,40.9L789.3,40.9L789.3,17.2L800.3,17.2C802.6,17.2 804.7,17.5 806.5,18C808.3,18.5 809.9,19.2 811.1,20.1C813.5,21.9 814.6,24.6 814.6,28.2C814.6,31.9 813.4,34.9 811.1,37.2C809.8,38.4 808.2,39.4 806.4,40.1C804.6,40.8 802.6,41.1 800.3,40.9ZM469.5,107.6C468,106 466.3,104.9 464.3,104C462.2,103.1 460.1,102.7 457.8,102.7C455.5,102.7 453.4,103.1 451.3,104C449.3,104.8 447.6,106 446.1,107.6C444.5,109.1 443.4,110.8 442.5,112.8C441.6,114.9 441.2,117 441.2,119.3C441.2,121.6 441.6,123.7 442.5,125.8C443.3,127.8 444.5,129.5 446.1,131C447.6,132.6 449.3,133.7 451.3,134.6C453.4,135.5 455.5,135.9 457.8,135.9C460.1,135.9 462.2,135.5 464.3,134.6C466.3,133.8 468,132.6 469.5,131C471.1,129.5 472.2,127.8 473.1,125.8C474,123.7 474.4,121.6 474.4,119.3C474.4,117 474,114.9 473.1,112.8C472.3,110.8 471.1,109.1 469.5,107.6ZM471.2,124.9C470.4,126.7 469.4,128.2 468.1,129.5C466.8,130.8 465.3,131.8 463.5,132.6C461.7,133.4 459.8,133.7 457.9,133.7C455.9,133.7 454,133.3 452.2,132.6C450.4,131.8 448.9,130.8 447.6,129.5C446.3,128.2 445.3,126.7 444.5,124.9C443.7,123.1 443.4,121.3 443.4,119.2C443.4,117.2 443.8,115.3 444.5,113.6C445.3,111.8 446.3,110.3 447.6,109C448.9,107.7 450.4,106.7 452.2,105.9C454,105.1 455.8,104.8 457.9,104.8C459.9,104.8 461.8,105.2 463.5,105.9C465.3,106.7 466.8,107.7 468.1,109C469.4,110.3 470.4,111.8 471.2,113.6C472,115.4 472.3,117.3 472.3,119.2C472.4,121.3 472,123.2 471.2,124.9ZM498.6,69.4C502.2,68.1 505.6,66.1 508.6,63.6C511.5,61.1 513.9,58.1 515.8,54.8C517.7,51.5 519,47.9 519.6,44.2L519.9,42.1C520,41.5 520.1,40.9 520.1,40.2L520.1,38.5L485.3,38.5L485.3,48.2L508.4,48.2C507.5,50.2 506.3,52.1 504.9,53.7C503.5,55.3 501.8,56.8 500,58C498.2,59.2 496.2,60.1 494,60.8C491.8,61.4 489.6,61.8 487.3,61.8C484.1,61.8 481.1,61.2 478.3,60C475.5,58.8 473.1,57.1 471,55C468.9,52.9 467.3,50.5 466.1,47.7C464.9,44.9 464.3,41.9 464.3,38.7C464.3,35.5 464.9,32.5 466.1,29.7C467.3,26.9 468.9,24.5 471,22.4C473.1,20.3 475.5,18.7 478.3,17.5C481.1,16.3 484.1,15.7 487.3,15.7C491.3,15.7 495,16.6 498.4,18.4C501.8,20.2 504.6,22.8 506.7,26.1L514.8,20.8C513.3,18.5 511.6,16.5 509.7,14.7C507.7,12.9 505.6,11.3 503.2,10C498.3,7.3 493,6 487.3,6C482.8,6 478.6,6.8 474.6,8.5C470.6,10.2 467.2,12.6 464.2,15.5C462.7,17.1 461.3,18.7 460.2,20.4C459,22.1 458,23.9 457.2,25.9C455.5,30 454.6,34.2 454.6,38.6C454.6,43 455.5,47.3 457.2,51.3C458.8,55.2 461.2,58.6 464.2,61.7C467.2,64.7 470.6,67.1 474.6,68.7C478.7,70.4 482.9,71.3 487.3,71.3C491.2,71.4 495,70.8 498.6,69.4ZM535.9,135.1L537.9,135.1L537.9,103.5L535.9,103.5L535.9,135.1ZM421.2,103.5L419.2,103.5L419.2,135.1L437,135.1L437,133.1L421.2,133.1L421.2,103.5ZM526.5,116.7L505.8,116.7L505.8,103.5L503.8,103.5L503.8,135.1L505.8,135.1L505.8,118.7L526.5,118.7L526.5,135.1L528.5,135.1L528.5,103.5L526.5,103.5L526.5,116.7ZM475.4,105.5L486.5,105.5L486.5,135.1L488.5,135.1L488.5,105.5L499.5,105.5L499.5,103.5L475.4,103.5L475.4,105.5Z" style="fill-rule:nonzero;"/>
    </g>
</svg>
