<?xml version="1.0" encoding="UTF-8" standalone="no"?>
<!DOCTYPE svg PUBLIC "-//W3C//DTD SVG 1.1//EN" "http://www.w3.org/Graphics/SVG/1.1/DTD/svg11.dtd">
<svg width="100%" height="100%" viewBox="0 0 85 18" version="1.1" xmlns="http://www.w3.org/2000/svg" xmlns:xlink="http://www.w3.org/1999/xlink" xml:space="preserve" xmlns:serif="http://www.serif.com/" style="fill-rule:evenodd;clip-rule:evenodd;stroke-linejoin:round;stroke-miterlimit:2;">
    <g id="Group-13" transform="matrix(1,0,0,1,0,-0.346015)">
        <g id="Fill-1" transform="matrix(1,0,0,1,0.0001,0.954554)">
            <path d="M19.163,5.166C19.163,6.202 18.976,7.063 18.608,7.726C18.233,8.399 17.78,8.934 17.261,9.318C16.735,9.708 16.186,9.98 15.629,10.128C15.059,10.28 14.582,10.357 14.211,10.357L3.377,10.357L3.377,16.102L0,16.102L0,0L14.211,0C14.61,0 15.107,0.077 15.688,0.229C16.253,0.378 16.803,0.647 17.319,1.027C17.83,1.403 18.27,1.929 18.629,2.591C18.983,3.248 19.163,4.113 19.163,5.166ZM14.856,7.006C15.103,6.835 15.319,6.602 15.499,6.312C15.69,6.006 15.786,5.62 15.786,5.166C15.786,4.703 15.7,4.315 15.531,4.011C15.365,3.715 15.157,3.48 14.91,3.312C14.675,3.153 14.43,3.043 14.182,2.986C13.947,2.931 13.76,2.905 13.609,2.905L3.377,2.905L3.377,7.452L13.609,7.452C13.734,7.452 13.903,7.421 14.14,7.355C14.375,7.289 14.616,7.172 14.856,7.006Z"/>
        </g>
        <g id="Group-5" transform="matrix(1,0,0,1,22,0.383192)">
            <g id="Clip-4" transform="matrix(1,0,0,1,0.1434,0.0663577)">
                <rect x="0" y="0" width="20.041" height="17.241" style="fill:none;fill-rule:nonzero;"/>
            </g>
            <g>
                <clipPath id="_clip1">
                    <rect x="0.143" y="0.066" width="20.041" height="17.241"/>
                </clipPath>
                <g clip-path="url(#_clip1)">
                    <g id="Fill-3" transform="matrix(1,0,0,1,0.1434,0.0663577)">
                        <path d="M18.499,13.328C18.164,13.502 17.828,13.668 17.493,13.826L16.985,14.066L19.935,16.607L15.928,16.607L14.271,15.26L14.087,15.333C13.443,15.587 12.788,15.83 12.121,16.06C11.462,16.289 10.793,16.493 10.132,16.666C9.477,16.838 8.826,16.977 8.197,17.08C6.359,17.379 4.816,17.233 3.598,16.884C2.801,16.656 2.127,16.333 1.595,15.921C1.072,15.517 0.671,15.027 0.403,14.464C0.136,13.902 0,13.264 0,12.57C0,11.978 0.121,11.456 0.36,11.017C0.607,10.563 0.948,10.153 1.374,9.8C1.812,9.436 2.333,9.108 2.923,8.825C3.522,8.537 4.162,8.279 4.826,8.06L5.372,7.88L4.967,7.459C4.543,7.019 4.176,6.523 3.877,5.983C3.593,5.473 3.449,4.915 3.449,4.325C3.449,3.818 3.559,3.301 3.777,2.789C3.993,2.285 4.356,1.821 4.856,1.413C5.364,0.996 6.045,0.653 6.88,0.394C7.724,0.132 8.773,0 9.998,0C11.161,0 12.175,0.132 13.01,0.393C13.84,0.653 14.531,0.998 15.065,1.417C15.588,1.828 15.977,2.308 16.222,2.845C16.469,3.387 16.593,3.95 16.593,4.517C16.593,5.073 16.466,5.537 16.203,5.936C15.929,6.352 15.561,6.719 15.107,7.028C14.639,7.346 14.083,7.629 13.455,7.867C12.81,8.111 12.131,8.331 11.438,8.519L10.782,8.696L14.525,11.935L16.116,11.192C16.518,10.999 16.963,10.782 17.451,10.541C17.836,10.351 18.209,10.161 18.57,9.97L20.041,12.523C19.846,12.628 19.644,12.737 19.434,12.849C19.105,13.023 18.796,13.182 18.506,13.325L18.499,13.328ZM7.573,3.33L7.573,3.33C8.081,3.012 8.874,2.857 9.998,2.857C11.053,2.857 11.829,3.001 12.37,3.296C12.978,3.626 13.286,4.038 13.286,4.517C13.286,4.862 13.144,5.174 12.862,5.444C12.625,5.672 12.303,5.877 11.905,6.053C11.528,6.219 11.079,6.375 10.573,6.514C10.078,6.651 9.543,6.792 8.969,6.936L8.802,6.979L7.325,5.736C6.927,5.365 6.733,4.976 6.733,4.565C6.733,4.095 7.015,3.68 7.573,3.33ZM8.62,14.076C9.411,13.883 10.241,13.629 11.086,13.32L11.681,13.103L7.322,9.504L7.152,9.552C6.636,9.699 6.155,9.849 5.709,10.003C5.246,10.164 4.842,10.349 4.51,10.551C4.157,10.765 3.87,11.018 3.658,11.302C3.425,11.615 3.307,11.976 3.307,12.378C3.307,13.036 3.621,13.565 4.216,13.909C4.76,14.222 5.485,14.374 6.433,14.374C7.074,14.374 7.809,14.274 8.62,14.076L8.62,14.076Z"/>
                    </g>
                </g>
            </g>
        </g>
        <g id="Fill-6" transform="matrix(1,0,0,1,45.5829,0.401469)">
            <path d="M16.646,12.163C16.223,12.569 15.713,12.928 15.131,13.23C14.553,13.531 13.888,13.771 13.154,13.945C12.424,14.118 11.62,14.206 10.762,14.206C9.588,14.206 8.543,14.054 7.657,13.756C6.763,13.455 6.008,13.044 5.414,12.537C4.812,12.024 4.352,11.42 4.046,10.741C3.74,10.062 3.585,9.344 3.585,8.604C3.585,7.848 3.74,7.122 4.046,6.444C4.353,5.763 4.813,5.159 5.414,4.646C6.008,4.138 6.764,3.733 7.66,3.439C8.548,3.149 9.591,3.002 10.762,3.002C11.569,3.002 12.337,3.081 13.045,3.238C13.753,3.395 14.399,3.61 14.968,3.875C15.543,4.145 16.047,4.471 16.464,4.844C16.791,5.138 17.069,5.451 17.294,5.78L20.32,4.188C19.961,3.672 19.528,3.185 19.028,2.736C18.422,2.19 17.707,1.706 16.904,1.297C16.102,0.888 15.19,0.566 14.195,0.34C13.195,0.115 12.095,0 10.924,0C9.195,0 7.631,0.236 6.277,0.703C4.927,1.167 3.773,1.801 2.846,2.587C1.926,3.366 1.213,4.283 0.728,5.313C0.245,6.34 0,7.448 0,8.604C0,9.761 0.245,10.868 0.728,11.894C1.213,12.923 1.925,13.841 2.846,14.621C3.773,15.407 4.927,16.04 6.277,16.505C7.631,16.972 9.195,17.208 10.924,17.208C12.141,17.208 13.276,17.086 14.296,16.844C15.312,16.604 16.242,16.262 17.062,15.829C17.877,15.398 18.599,14.886 19.207,14.31C19.713,13.829 20.146,13.302 20.498,12.741L17.457,11.152C17.25,11.506 16.978,11.845 16.647,12.163L16.646,12.163Z" style="fill-rule:nonzero;"/>
        </g>
        <g id="Group-10" transform="matrix(1,0,0,1,70,0.0370385)">
            <g>
                <clipPath id="_clip2">
                    <rect x="0.033" y="0.309" width="14.959" height="12.381"/>
                </clipPath>
                <g clip-path="url(#_clip2)">
                    <g id="Fill-8" transform="matrix(1,0,0,1,0.0325667,0.308977)">
                        <path d="M12.968,1.839C13.609,2.4 14.107,3.061 14.448,3.806C14.787,4.551 14.959,5.353 14.959,6.191C14.959,7.028 14.787,7.83 14.448,8.575C14.108,9.319 13.61,9.981 12.968,10.543C12.328,11.104 11.536,11.555 10.616,11.884C9.696,12.214 8.641,12.381 7.48,12.381C6.319,12.381 5.264,12.214 4.343,11.884C3.424,11.555 2.632,11.104 1.991,10.542C1.349,9.98 0.852,9.318 0.512,8.575C0.172,7.83 0,7.028 0,6.191C0,5.353 0.172,4.551 0.512,3.806C0.852,3.062 1.349,2.4 1.991,1.838C2.633,1.277 3.424,0.826 4.343,0.496C5.264,0.167 6.319,0 7.48,0C8.641,0 9.696,0.167 10.616,0.496C11.536,0.826 12.328,1.278 12.968,1.839ZM10.817,8.722C11.183,8.391 11.46,8.003 11.64,7.57C11.821,7.136 11.912,6.672 11.912,6.191C11.912,5.709 11.821,5.245 11.64,4.811C11.46,4.379 11.183,3.991 10.817,3.658C10.45,3.326 9.983,3.059 9.43,2.866C8.875,2.672 8.219,2.573 7.48,2.573C6.74,2.573 6.084,2.672 5.53,2.866C4.976,3.059 4.509,3.326 4.142,3.659C3.776,3.991 3.499,4.379 3.319,4.811C3.139,5.244 3.048,5.708 3.048,6.191C3.048,6.673 3.139,7.137 3.319,7.57C3.499,8.003 3.776,8.391 4.142,8.723C4.509,9.055 4.976,9.322 5.53,9.515C6.086,9.709 6.742,9.807 7.48,9.807C8.217,9.807 8.874,9.709 9.43,9.515C9.983,9.322 10.45,9.055 10.817,8.722Z"/>
                    </g>
                </g>
            </g>
        </g>
        <g>
            <g id="Fill-11" transform="matrix(1,0,0,1,73.7317,14.257)">
                <rect x="0" y="0" width="7.561" height="2.809" style="fill-rule:nonzero;"/>
            </g>
        </g>
    </g>
</svg>
