<?xml version="1.0" encoding="UTF-8" standalone="no"?>
<!DOCTYPE svg PUBLIC "-//W3C//DTD SVG 1.1//EN" "http://www.w3.org/Graphics/SVG/1.1/DTD/svg11.dtd">
<svg width="100%" height="100%" viewBox="0 0 208 24" version="1.1" xmlns="http://www.w3.org/2000/svg" xmlns:xlink="http://www.w3.org/1999/xlink" xml:space="preserve" xmlns:serif="http://www.serif.com/" style="fill-rule:evenodd;clip-rule:evenodd;stroke-linejoin:round;stroke-miterlimit:2;">
    <path d="M17.156,2.28L17.156,2.88C16.538,2.96 15.939,3.16 15.36,3.48C14.781,3.8 14.202,4.33 13.623,5.07L7.845,12.48L8.503,11.01L15.689,21.09C16.029,21.59 16.398,21.98 16.797,22.26C17.196,22.54 17.705,22.76 18.324,22.92L18.324,23.52C17.845,23.48 17.246,23.46 16.528,23.46C15.829,23.44 15.23,23.43 14.731,23.43C14.392,23.43 13.973,23.44 13.474,23.46C12.995,23.46 12.386,23.48 11.647,23.52L11.647,22.92C12.326,22.88 12.755,22.76 12.935,22.56C13.114,22.36 13.044,22.03 12.725,21.57L8.354,14.97C7.954,14.35 7.595,13.89 7.276,13.59C6.976,13.27 6.657,13.06 6.318,12.96C5.998,12.86 5.589,12.8 5.09,12.78L5.09,12.18C5.928,12.16 6.627,12 7.186,11.7C7.765,11.38 8.244,10.98 8.623,10.5L11.497,6.84C12.156,6 12.605,5.29 12.845,4.71C13.084,4.13 13.074,3.69 12.815,3.39C12.555,3.07 12.006,2.9 11.168,2.88L11.168,2.28C11.547,2.3 11.937,2.32 12.336,2.34C12.735,2.34 13.124,2.35 13.504,2.37L14.611,2.37C15.13,2.37 15.609,2.36 16.049,2.34C16.488,2.32 16.857,2.3 17.156,2.28ZM7.635,2.28L7.635,2.88C6.956,2.9 6.437,2.98 6.078,3.12C5.739,3.24 5.509,3.48 5.389,3.84C5.27,4.18 5.21,4.72 5.21,5.46L5.21,20.34C5.21,21.06 5.27,21.6 5.389,21.96C5.509,22.32 5.739,22.56 6.078,22.68C6.437,22.8 6.956,22.88 7.635,22.92L7.635,23.52C7.176,23.48 6.597,23.46 5.898,23.46C5.22,23.44 4.531,23.43 3.832,23.43C3.054,23.43 2.325,23.44 1.647,23.46C0.968,23.46 0.419,23.48 0,23.52L0,22.92C0.679,22.88 1.188,22.8 1.527,22.68C1.886,22.56 2.126,22.32 2.246,21.96C2.365,21.6 2.425,21.06 2.425,20.34L2.425,5.46C2.425,4.72 2.365,4.18 2.246,3.84C2.126,3.48 1.886,3.24 1.527,3.12C1.188,2.98 0.679,2.9 0,2.88L0,2.28C0.419,2.3 0.968,2.32 1.647,2.34C2.325,2.36 3.054,2.37 3.832,2.37C4.531,2.37 5.22,2.36 5.898,2.34C6.597,2.32 7.176,2.3 7.635,2.28Z" style="fill-rule:nonzero;"/>
    <path d="M22.644,0.57C23.163,0.57 23.612,0.76 23.991,1.14C24.37,1.52 24.56,1.97 24.56,2.49C24.56,3.01 24.37,3.46 23.991,3.84C23.612,4.22 23.163,4.41 22.644,4.41C22.125,4.41 21.676,4.22 21.296,3.84C20.917,3.46 20.728,3.01 20.728,2.49C20.728,1.97 20.917,1.52 21.296,1.14C21.676,0.76 22.125,0.57 22.644,0.57ZM24.201,7.74L24.201,20.73C24.201,21.57 24.37,22.14 24.71,22.44C25.069,22.74 25.658,22.89 26.476,22.89L26.476,23.52C26.137,23.5 25.618,23.48 24.919,23.46C24.241,23.42 23.552,23.4 22.853,23.4C22.175,23.4 21.486,23.42 20.787,23.46C20.089,23.48 19.57,23.5 19.231,23.52L19.231,22.89C20.049,22.89 20.628,22.74 20.967,22.44C21.326,22.14 21.506,21.57 21.506,20.73L21.506,11.34C21.506,10.44 21.346,9.78 21.027,9.36C20.708,8.92 20.109,8.7 19.231,8.7L19.231,8.07C19.869,8.13 20.488,8.16 21.087,8.16C21.666,8.16 22.215,8.13 22.734,8.07C23.273,7.99 23.762,7.88 24.201,7.74Z" style="fill-rule:nonzero;"/>
    <path d="M32.823,3.09L32.823,8.1L37.254,8.1L37.254,8.7L32.823,8.7L32.823,20.31C32.823,21.25 32.993,21.91 33.332,22.29C33.671,22.67 34.14,22.86 34.739,22.86C35.338,22.86 35.857,22.62 36.296,22.14C36.735,21.64 37.115,20.81 37.434,19.65L38.033,19.8C37.833,20.96 37.434,21.94 36.835,22.74C36.256,23.54 35.358,23.94 34.14,23.94C33.462,23.94 32.903,23.85 32.464,23.67C32.024,23.51 31.635,23.27 31.296,22.95C30.857,22.49 30.547,21.94 30.368,21.3C30.208,20.66 30.128,19.81 30.128,18.75L30.128,8.7L27.254,8.7L27.254,8.1L30.128,8.1L30.128,3.51C30.627,3.49 31.106,3.45 31.565,3.39C32.024,3.33 32.444,3.23 32.823,3.09Z" style="fill-rule:nonzero;"/>
    <path d="M101.99,2.28L101.99,2.88C101.372,2.96 100.773,3.16 100.194,3.48C99.615,3.8 99.036,4.33 98.457,5.07L92.679,12.48L93.337,11.01L100.523,21.09C100.863,21.59 101.232,21.98 101.631,22.26C102.03,22.54 102.539,22.76 103.158,22.92L103.158,23.52C102.679,23.48 102.08,23.46 101.362,23.46C100.663,23.44 100.064,23.43 99.565,23.43C99.226,23.43 98.807,23.44 98.308,23.46C97.829,23.46 97.22,23.48 96.481,23.52L96.481,22.92C97.16,22.88 97.589,22.76 97.769,22.56C97.948,22.36 97.878,22.03 97.559,21.57L93.188,14.97C92.788,14.35 92.429,13.89 92.11,13.59C91.81,13.27 91.491,13.06 91.152,12.96C90.832,12.86 90.423,12.8 89.924,12.78L89.924,12.18C90.762,12.16 91.461,12 92.02,11.7C92.599,11.38 93.078,10.98 93.457,10.5L96.331,6.84C96.99,6 97.439,5.29 97.679,4.71C97.918,4.13 97.908,3.69 97.649,3.39C97.389,3.07 96.84,2.9 96.002,2.88L96.002,2.28C96.381,2.3 96.771,2.32 97.17,2.34C97.569,2.34 97.958,2.35 98.338,2.37L99.445,2.37C99.964,2.37 100.443,2.36 100.883,2.34C101.322,2.32 101.691,2.3 101.99,2.28ZM92.469,2.28L92.469,2.88C91.79,2.9 91.271,2.98 90.912,3.12C90.573,3.24 90.343,3.48 90.223,3.84C90.104,4.18 90.044,4.72 90.044,5.46L90.044,20.34C90.044,21.06 90.104,21.6 90.223,21.96C90.343,22.32 90.573,22.56 90.912,22.68C91.271,22.8 91.79,22.88 92.469,22.92L92.469,23.52C92.01,23.48 91.431,23.46 90.732,23.46C90.054,23.44 89.365,23.43 88.667,23.43C87.888,23.43 87.159,23.44 86.481,23.46C85.802,23.46 85.253,23.48 84.834,23.52L84.834,22.92C85.513,22.88 86.022,22.8 86.361,22.68C86.72,22.56 86.96,22.32 87.08,21.96C87.199,21.6 87.259,21.06 87.259,20.34L87.259,5.46C87.259,4.72 87.199,4.18 87.08,3.84C86.96,3.48 86.72,3.24 86.361,3.12C86.022,2.98 85.513,2.9 84.834,2.88L84.834,2.28C85.253,2.3 85.802,2.32 86.481,2.34C87.159,2.36 87.888,2.37 88.667,2.37C89.365,2.37 90.054,2.36 90.732,2.34C91.431,2.32 92.01,2.3 92.469,2.28Z" style="fill-rule:nonzero;"/>
    <path d="M108.316,23.73C107.498,23.73 106.789,23.58 106.19,23.28C105.591,22.96 105.132,22.52 104.813,21.96C104.514,21.4 104.364,20.75 104.364,20.01C104.364,19.13 104.563,18.41 104.963,17.85C105.382,17.29 105.911,16.84 106.55,16.5C107.188,16.16 107.857,15.88 108.556,15.66C109.274,15.42 109.953,15.2 110.592,15C111.23,14.78 111.749,14.53 112.149,14.25C112.568,13.97 112.777,13.6 112.777,13.14L112.777,11.28C112.777,10.44 112.648,9.8 112.388,9.36C112.149,8.92 111.819,8.63 111.4,8.49C110.981,8.33 110.512,8.25 109.993,8.25C109.494,8.25 108.955,8.32 108.376,8.46C107.817,8.6 107.368,8.89 107.029,9.33C107.408,9.41 107.737,9.61 108.017,9.93C108.296,10.25 108.436,10.66 108.436,11.16C108.436,11.66 108.276,12.06 107.957,12.36C107.637,12.64 107.228,12.78 106.729,12.78C106.15,12.78 105.721,12.6 105.442,12.24C105.182,11.86 105.053,11.44 105.053,10.98C105.053,10.46 105.182,10.04 105.442,9.72C105.701,9.4 106.031,9.1 106.43,8.82C106.889,8.5 107.478,8.23 108.196,8.01C108.935,7.77 109.763,7.65 110.681,7.65C111.5,7.65 112.199,7.75 112.777,7.95C113.356,8.13 113.835,8.4 114.215,8.76C114.734,9.24 115.073,9.83 115.233,10.53C115.392,11.21 115.472,12.03 115.472,12.99L115.472,21.33C115.472,21.83 115.542,22.19 115.682,22.41C115.841,22.63 116.081,22.74 116.4,22.74C116.62,22.74 116.829,22.69 117.029,22.59C117.229,22.49 117.468,22.33 117.748,22.11L118.077,22.62C117.658,22.94 117.259,23.21 116.879,23.43C116.5,23.63 115.991,23.73 115.352,23.73C114.773,23.73 114.294,23.63 113.915,23.43C113.536,23.23 113.246,22.94 113.047,22.56C112.867,22.16 112.777,21.66 112.777,21.06C112.238,21.96 111.59,22.63 110.831,23.07C110.093,23.51 109.254,23.73 108.316,23.73ZM109.394,22.53C110.053,22.53 110.662,22.34 111.22,21.96C111.799,21.58 112.318,21.01 112.777,20.25L112.777,14.37C112.538,14.71 112.189,15 111.729,15.24C111.27,15.46 110.771,15.69 110.232,15.93C109.693,16.15 109.174,16.42 108.675,16.74C108.196,17.04 107.797,17.44 107.478,17.94C107.158,18.44 106.999,19.09 106.999,19.89C106.999,20.69 107.208,21.33 107.627,21.81C108.067,22.29 108.655,22.53 109.394,22.53Z" style="fill-rule:nonzero;"/>
    <path d="M127.869,7.65C129.506,7.65 130.863,8.33 131.941,9.69C133.019,11.03 133.558,13.07 133.558,15.81C133.558,17.61 133.249,19.12 132.63,20.34C132.031,21.54 131.223,22.44 130.205,23.04C129.187,23.64 128.079,23.94 126.881,23.94C125.883,23.94 124.915,23.66 123.977,23.1C123.059,22.52 122.37,21.67 121.911,20.55L122.51,20.88C123.009,21.68 123.627,22.28 124.366,22.68C125.105,23.06 125.863,23.25 126.642,23.25C127.979,23.25 128.977,22.65 129.636,21.45C130.314,20.23 130.654,18.35 130.654,15.81C130.654,14.19 130.524,12.84 130.264,11.76C130.005,10.68 129.606,9.88 129.067,9.36C128.528,8.82 127.839,8.55 127.001,8.55C126.083,8.55 125.224,8.97 124.426,9.81C123.647,10.63 123.168,11.84 122.989,13.44L122.629,13.02C122.849,11.32 123.438,10 124.396,9.06C125.374,8.12 126.532,7.65 127.869,7.65ZM123.198,0.03L123.198,21.96C122.939,22.18 122.669,22.41 122.39,22.65C122.13,22.87 121.871,23.09 121.611,23.31C121.352,23.53 121.082,23.76 120.803,24L120.294,23.79C120.374,23.51 120.424,23.23 120.444,22.95C120.484,22.65 120.504,22.35 120.504,22.05L120.504,3.63C120.504,2.73 120.344,2.07 120.025,1.65C119.705,1.21 119.106,0.99 118.228,0.99L118.228,0.36C118.867,0.42 119.486,0.45 120.084,0.45C120.663,0.45 121.212,0.42 121.731,0.36C122.27,0.28 122.759,0.17 123.198,0.03Z" style="fill-rule:nonzero;"/>
    <path d="M143.183,7.65C144.461,7.65 145.609,7.93 146.627,8.49C147.645,9.05 148.453,9.93 149.052,11.13C149.671,12.33 149.98,13.89 149.98,15.81C149.98,17.73 149.671,19.29 149.052,20.49C148.453,21.67 147.645,22.54 146.627,23.1C145.609,23.66 144.461,23.94 143.183,23.94C141.926,23.94 140.778,23.66 139.74,23.1C138.722,22.54 137.904,21.67 137.285,20.49C136.686,19.29 136.387,17.73 136.387,15.81C136.387,13.89 136.686,12.33 137.285,11.13C137.904,9.93 138.722,9.05 139.74,8.49C140.778,7.93 141.926,7.65 143.183,7.65ZM143.183,8.25C142.046,8.25 141.107,8.84 140.369,10.02C139.65,11.2 139.291,13.13 139.291,15.81C139.291,18.49 139.65,20.42 140.369,21.6C141.107,22.76 142.046,23.34 143.183,23.34C144.321,23.34 145.249,22.76 145.968,21.6C146.707,20.42 147.076,18.49 147.076,15.81C147.076,13.13 146.707,11.2 145.968,10.02C145.249,8.84 144.321,8.25 143.183,8.25Z" style="fill-rule:nonzero;"/>
    <path d="M159.587,7.65C160.864,7.65 162.012,7.93 163.03,8.49C164.048,9.05 164.856,9.93 165.455,11.13C166.074,12.33 166.383,13.89 166.383,15.81C166.383,17.73 166.074,19.29 165.455,20.49C164.856,21.67 164.048,22.54 163.03,23.1C162.012,23.66 160.864,23.94 159.587,23.94C158.329,23.94 157.182,23.66 156.144,23.1C155.126,22.54 154.307,21.67 153.688,20.49C153.09,19.29 152.79,17.73 152.79,15.81C152.79,13.89 153.09,12.33 153.688,11.13C154.307,9.93 155.126,9.05 156.144,8.49C157.182,7.93 158.329,7.65 159.587,7.65ZM159.587,8.25C158.449,8.25 157.511,8.84 156.772,10.02C156.054,11.2 155.694,13.13 155.694,15.81C155.694,18.49 156.054,20.42 156.772,21.6C157.511,22.76 158.449,23.34 159.587,23.34C160.725,23.34 161.653,22.76 162.371,21.6C163.11,20.42 163.479,18.49 163.479,15.81C163.479,13.13 163.11,11.2 162.371,10.02C161.653,8.84 160.725,8.25 159.587,8.25Z" style="fill-rule:nonzero;"/>
    <path d="M182.278,0L182.278,20.25C182.278,21.15 182.438,21.82 182.757,22.26C183.096,22.68 183.695,22.89 184.553,22.89L184.553,23.52C183.935,23.46 183.316,23.43 182.697,23.43C182.118,23.43 181.559,23.46 181.02,23.52C180.501,23.58 180.022,23.69 179.583,23.85L179.583,3.6C179.583,2.7 179.423,2.04 179.104,1.62C178.785,1.18 178.186,0.96 177.308,0.96L177.308,0.33C177.946,0.39 178.565,0.42 179.164,0.42C179.743,0.42 180.292,0.39 180.811,0.33C181.35,0.25 181.839,0.14 182.278,0ZM175.99,7.65C176.868,7.65 177.687,7.86 178.445,8.28C179.224,8.7 179.743,9.42 180.002,10.44L179.613,10.74C179.334,9.9 178.894,9.29 178.296,8.91C177.717,8.53 177.028,8.34 176.23,8.34C175.052,8.34 174.064,8.95 173.266,10.17C172.487,11.39 172.108,13.27 172.128,15.81C172.128,17.43 172.277,18.78 172.577,19.86C172.896,20.92 173.355,21.72 173.954,22.26C174.573,22.78 175.321,23.04 176.2,23.04C177.038,23.04 177.797,22.68 178.475,21.96C179.154,21.24 179.563,20.18 179.703,18.78L180.062,19.2C179.902,20.72 179.413,21.89 178.595,22.71C177.797,23.53 176.709,23.94 175.331,23.94C174.094,23.94 173.006,23.64 172.068,23.04C171.15,22.44 170.441,21.54 169.942,20.34C169.463,19.14 169.223,17.63 169.223,15.81C169.223,13.99 169.533,12.48 170.152,11.28C170.79,10.06 171.619,9.15 172.637,8.55C173.675,7.95 174.793,7.65 175.99,7.65Z" style="fill-rule:nonzero;"/>
    <path d="M190.304,23.73C189.485,23.73 188.777,23.58 188.178,23.28C187.579,22.96 187.12,22.52 186.801,21.96C186.501,21.4 186.351,20.75 186.351,20.01C186.351,19.13 186.551,18.41 186.95,17.85C187.369,17.29 187.898,16.84 188.537,16.5C189.176,16.16 189.845,15.88 190.543,15.66C191.262,15.42 191.941,15.2 192.579,15C193.218,14.78 193.737,14.53 194.136,14.25C194.555,13.97 194.765,13.6 194.765,13.14L194.765,11.28C194.765,10.44 194.635,9.8 194.376,9.36C194.136,8.92 193.807,8.63 193.388,8.49C192.968,8.33 192.499,8.25 191.98,8.25C191.481,8.25 190.942,8.32 190.364,8.46C189.805,8.6 189.356,8.89 189.016,9.33C189.396,9.41 189.725,9.61 190.004,9.93C190.284,10.25 190.423,10.66 190.423,11.16C190.423,11.66 190.264,12.06 189.944,12.36C189.625,12.64 189.216,12.78 188.717,12.78C188.138,12.78 187.709,12.6 187.429,12.24C187.17,11.86 187.04,11.44 187.04,10.98C187.04,10.46 187.17,10.04 187.429,9.72C187.689,9.4 188.018,9.1 188.417,8.82C188.877,8.5 189.465,8.23 190.184,8.01C190.923,7.77 191.751,7.65 192.669,7.65C193.487,7.65 194.186,7.75 194.765,7.95C195.344,8.13 195.823,8.4 196.202,8.76C196.721,9.24 197.06,9.83 197.22,10.53C197.38,11.21 197.46,12.03 197.46,12.99L197.46,21.33C197.46,21.83 197.53,22.19 197.669,22.41C197.829,22.63 198.069,22.74 198.388,22.74C198.607,22.74 198.817,22.69 199.017,22.59C199.216,22.49 199.456,22.33 199.735,22.11L200.065,22.62C199.645,22.94 199.246,23.21 198.867,23.43C198.488,23.63 197.979,23.73 197.34,23.73C196.761,23.73 196.282,23.63 195.903,23.43C195.523,23.23 195.234,22.94 195.034,22.56C194.855,22.16 194.765,21.66 194.765,21.06C194.226,21.96 193.577,22.63 192.819,23.07C192.08,23.51 191.242,23.73 190.304,23.73ZM191.382,22.53C192.04,22.53 192.649,22.34 193.208,21.96C193.787,21.58 194.306,21.01 194.765,20.25L194.765,14.37C194.525,14.71 194.176,15 193.717,15.24C193.258,15.46 192.759,15.69 192.22,15.93C191.681,16.15 191.162,16.42 190.663,16.74C190.184,17.04 189.785,17.44 189.465,17.94C189.146,18.44 188.986,19.09 188.986,19.89C188.986,20.69 189.196,21.33 189.615,21.81C190.054,22.29 190.643,22.53 191.382,22.53Z" style="fill-rule:nonzero;"/>
    <path d="M205.725,0L205.725,20.73C205.725,21.57 205.895,22.14 206.234,22.44C206.593,22.74 207.182,22.89 208,22.89L208,23.52C207.661,23.5 207.142,23.48 206.443,23.46C205.765,23.42 205.076,23.4 204.378,23.4C203.699,23.4 203.01,23.42 202.312,23.46C201.613,23.48 201.094,23.5 200.755,23.52L200.755,22.89C201.573,22.89 202.152,22.74 202.491,22.44C202.851,22.14 203.03,21.57 203.03,20.73L203.03,3.6C203.03,2.7 202.87,2.04 202.551,1.62C202.232,1.18 201.633,0.96 200.755,0.96L200.755,0.33C201.393,0.39 202.012,0.42 202.611,0.42C203.19,0.42 203.739,0.39 204.258,0.33C204.797,0.25 205.286,0.14 205.725,0Z" style="fill-rule:nonzero;"/>
    <path d="M46.878,23.16C47.197,23.16 47.563,22.96 47.976,22.56C48.388,22.147 48.808,21.593 49.233,20.9C49.659,20.207 50.052,19.42 50.411,18.54C50.77,17.66 51.057,16.747 51.269,15.8L50.93,17.96C50.424,19.373 49.919,20.513 49.413,21.38C48.907,22.233 48.395,22.853 47.876,23.24C47.357,23.613 46.832,23.8 46.299,23.8C45.674,23.8 45.201,23.573 44.882,23.12C44.576,22.667 44.423,22.087 44.423,21.38C44.423,20.74 44.529,20.047 44.742,19.3C44.955,18.54 45.248,17.787 45.621,17.04C46.006,16.293 46.446,15.613 46.938,15C47.43,14.387 47.963,13.893 48.535,13.52C49.12,13.147 49.713,12.96 50.311,12.96C50.777,12.96 51.13,13.193 51.369,13.66C51.622,14.113 51.675,14.753 51.529,15.58L51.309,15.7C51.403,14.993 51.356,14.427 51.17,14C50.983,13.56 50.677,13.34 50.251,13.34C49.905,13.34 49.539,13.513 49.154,13.86C48.781,14.193 48.415,14.653 48.056,15.24C47.71,15.813 47.39,16.46 47.098,17.18C46.818,17.9 46.592,18.647 46.419,19.42C46.259,20.18 46.179,20.913 46.179,21.62C46.179,22.193 46.239,22.593 46.359,22.82C46.492,23.047 46.665,23.16 46.878,23.16ZM51.908,13.24C52.228,13.227 52.547,13.2 52.866,13.16C53.186,13.12 53.478,13.053 53.745,12.96L51.25,21.8C51.223,21.92 51.183,22.08 51.13,22.28C51.09,22.467 51.09,22.64 51.13,22.8C51.183,22.96 51.323,23.04 51.549,23.04C51.815,23.04 52.075,22.893 52.327,22.6C52.58,22.307 52.833,21.773 53.086,21L53.325,20.26L53.705,20.26L53.206,21.72C53.019,22.253 52.793,22.673 52.527,22.98C52.274,23.273 52.008,23.48 51.728,23.6C51.449,23.733 51.176,23.8 50.91,23.8C50.391,23.8 50.025,23.627 49.812,23.28C49.639,22.973 49.593,22.62 49.673,22.22C49.752,21.807 49.846,21.393 49.952,20.98L51.908,13.24Z" style="fill-rule:nonzero;"/>
    <path d="M57.127,23.52L55.39,23.52L57.785,14.94C57.839,14.78 57.879,14.607 57.905,14.42C57.945,14.22 57.938,14.053 57.885,13.92C57.832,13.773 57.699,13.7 57.486,13.7C57.193,13.7 56.934,13.847 56.708,14.14C56.481,14.42 56.228,14.953 55.949,15.74L55.69,16.48L55.31,16.48L55.809,15.02C56.102,14.18 56.461,13.627 56.887,13.36C57.326,13.093 57.759,12.96 58.185,12.96C58.584,12.96 58.87,13.047 59.043,13.22C59.229,13.393 59.329,13.62 59.342,13.9C59.369,14.167 59.349,14.467 59.283,14.8C59.229,15.12 59.163,15.44 59.083,15.76L57.127,23.52ZM58.045,19.36C58.511,18.16 58.963,17.153 59.402,16.34C59.841,15.527 60.274,14.873 60.7,14.38C61.126,13.873 61.558,13.513 61.997,13.3C62.45,13.073 62.915,12.96 63.394,12.96C64.02,12.96 64.446,13.113 64.672,13.42C64.911,13.713 65.018,14.093 64.991,14.56C64.965,15.013 64.871,15.487 64.712,15.98L62.776,21.82C62.656,22.18 62.603,22.48 62.616,22.72C62.643,22.947 62.802,23.06 63.095,23.06C63.348,23.06 63.594,22.92 63.834,22.64C64.086,22.36 64.353,21.82 64.632,21.02L64.891,20.28L65.271,20.28L64.772,21.74C64.585,22.3 64.353,22.727 64.073,23.02C63.807,23.313 63.521,23.513 63.215,23.62C62.922,23.74 62.636,23.8 62.356,23.8C62.037,23.8 61.771,23.747 61.558,23.64C61.358,23.533 61.205,23.393 61.099,23.22C60.953,22.98 60.906,22.667 60.959,22.28C61.012,21.893 61.119,21.467 61.279,21L63.175,15.28C63.241,15.093 63.295,14.873 63.335,14.62C63.388,14.353 63.381,14.12 63.315,13.92C63.248,13.707 63.055,13.6 62.736,13.6C62.416,13.6 62.077,13.74 61.718,14.02C61.358,14.3 60.986,14.7 60.6,15.22C60.214,15.727 59.835,16.34 59.462,17.06C59.09,17.767 58.73,18.553 58.384,19.42C58.051,20.273 57.746,21.187 57.466,22.16L58.045,19.36Z" style="fill-rule:nonzero;"/>
    <path d="M73.636,21.82C73.543,22.127 73.503,22.413 73.516,22.68C73.543,22.933 73.702,23.06 73.995,23.06C74.261,23.06 74.507,22.913 74.734,22.62C74.96,22.313 75.2,21.78 75.452,21.02L75.692,20.28L76.071,20.28L75.612,21.74C75.452,22.273 75.239,22.693 74.973,23C74.707,23.293 74.428,23.5 74.135,23.62C73.842,23.74 73.563,23.8 73.297,23.8C72.498,23.8 72.079,23.42 72.039,22.66C72.026,22.447 72.039,22.2 72.079,21.92C72.132,21.64 72.205,21.333 72.299,21L75.173,10.18C75.293,9.727 75.273,9.393 75.113,9.18C74.953,8.967 74.547,8.86 73.895,8.86L74.015,8.44C74.747,8.427 75.392,8.353 75.951,8.22C76.51,8.073 77.043,7.873 77.548,7.62L73.636,21.82ZM69.165,23.16C69.497,23.16 69.87,22.967 70.282,22.58C70.708,22.18 71.134,21.647 71.56,20.98C71.999,20.3 72.398,19.533 72.758,18.68C73.13,17.813 73.423,16.92 73.636,16L73.336,18.16C72.818,19.533 72.299,20.633 71.78,21.46C71.274,22.287 70.755,22.887 70.223,23.26C69.704,23.62 69.158,23.8 68.586,23.8C68.173,23.8 67.807,23.707 67.488,23.52C67.182,23.32 66.942,23.027 66.769,22.64C66.596,22.253 66.51,21.76 66.51,21.16C66.51,20.52 66.61,19.833 66.809,19.1C67.022,18.353 67.322,17.62 67.708,16.9C68.093,16.18 68.553,15.527 69.085,14.94C69.63,14.34 70.229,13.86 70.881,13.5C71.533,13.14 72.225,12.96 72.957,12.96C73.263,12.96 73.549,13.08 73.816,13.32C74.082,13.547 74.228,13.893 74.255,14.36L74.095,14.76C74.042,14.28 73.909,13.94 73.696,13.74C73.483,13.527 73.243,13.42 72.977,13.42C72.472,13.42 71.979,13.593 71.5,13.94C71.034,14.287 70.609,14.747 70.223,15.32C69.837,15.893 69.497,16.533 69.205,17.24C68.912,17.933 68.686,18.647 68.526,19.38C68.366,20.1 68.286,20.78 68.286,21.42C68.286,22.007 68.36,22.447 68.506,22.74C68.652,23.02 68.872,23.16 69.165,23.16Z" style="fill-rule:nonzero;"/>
</svg>
