<?xml version="1.0" encoding="UTF-8" standalone="no"?>
<!DOCTYPE svg PUBLIC "-//W3C//DTD SVG 1.1//EN" "http://www.w3.org/Graphics/SVG/1.1/DTD/svg11.dtd">
<svg width="100%" height="100%" viewBox="0 0 190 27" version="1.1" xmlns="http://www.w3.org/2000/svg" xmlns:xlink="http://www.w3.org/1999/xlink" xml:space="preserve" xmlns:serif="http://www.serif.com/" style="fill-rule:evenodd;clip-rule:evenodd;stroke-linejoin:round;stroke-miterlimit:2;">
    <g>
        <path d="M27.055,4.732L36.446,4.732L36.446,25.851L41.734,25.851L41.734,4.732L51.122,4.732L51.122,0.289L27.055,0.289L27.055,4.732Z" style="fill-rule:nonzero;"/>
        <path d="M55.093,20.234C53.497,20.234 52.148,21.554 52.148,23.117C52.148,24.68 53.47,25.999 55.093,25.999C56.717,25.999 58.036,24.68 58.036,23.117C58.036,21.554 56.717,20.234 55.093,20.234Z" style="fill-rule:nonzero;"/>
        <path d="M21.256,13.106C19.122,11.246 15.895,10.911 12.475,10.558L12.171,10.526C8.469,10.144 5.271,9.81 5.271,7.426C5.271,5.494 7.32,4.294 10.618,4.294C14.155,4.294 17.211,5.271 20.528,7.461L20.675,7.554L22.534,3.395L22.542,3.379L22.439,3.312C19.239,1.239 14.82,0 10.621,0C7.421,0 4.731,0.78 2.845,2.256C1.064,3.647 0.084,5.621 0.084,7.819C0.084,10.152 1.126,12.037 3.1,13.271C5.287,14.627 8.428,14.924 11.202,15.19C14.912,15.543 18.112,15.845 18.112,18.428C18.112,20.387 15.77,21.756 12.415,21.756C8.678,21.756 5.467,20.742 2.009,18.473L1.862,18.377L0.046,22.451L0,22.558L0.095,22.624C2.988,24.676 7.728,26 12.168,26C15.534,26 18.365,25.198 20.354,23.686C22.282,22.218 23.302,20.195 23.302,17.839C23.302,15.819 22.653,14.314 21.256,13.106Z" style="fill-rule:nonzero;"/>
        <path d="M150.801,10.388L136.467,10.388L136.467,0.297L131.18,0.297L131.18,25.856L136.467,25.856L136.467,15.049L150.801,15.049L150.801,25.856L156.089,25.856L156.089,0.297L150.801,0.297L150.801,10.388Z" style="fill-rule:nonzero;"/>
        <path d="M116.339,19.105C114.612,20.624 112.308,21.457 109.851,21.457C107.395,21.457 105.088,20.621 103.364,19.105C101.589,17.545 100.609,15.392 100.609,13.049C100.609,10.705 101.589,8.55 103.364,6.989C105.091,5.474 107.395,4.638 109.851,4.638C112.308,4.638 114.615,5.474 116.339,6.989C118.114,8.55 119.094,10.702 119.094,13.049C119.094,15.395 118.114,17.545 116.339,19.105ZM109.851,0.096C106.111,0.096 102.433,1.339 99.763,3.507C96.79,5.92 95.219,9.216 95.219,13.046C95.219,21.457 102.756,25.996 109.851,25.996C113.592,25.996 117.27,24.753 119.94,22.585C122.913,20.172 124.481,16.876 124.481,13.046C124.481,4.632 116.944,0.094 109.851,0.094" style="fill-rule:nonzero;"/>
        <path d="M83.214,17.812C83.214,20.439 81.666,21.774 78.616,21.774C76.422,21.774 74.246,21.066 71.55,19.473L71.398,19.386L69.802,23.552L69.797,23.568L69.9,23.63C72.27,25.049 75.771,26.002 78.616,26.002C81.672,26.002 84.199,25.275 85.925,23.898C87.624,22.544 88.52,20.636 88.52,18.377L88.52,0.297L83.214,0.297L83.214,17.812Z" style="fill-rule:nonzero;"/>
        <path d="M169.759,8.586C169.759,8.079 169.65,7.607 169.588,7.349C169.715,7.58 169.932,8.002 170.272,8.387L185.645,25.811L185.678,25.849L189.996,25.849L189.996,0.292L185.04,0.292L185.04,16.901C185.04,17.408 185.151,17.883 185.211,18.141C185.083,17.91 184.866,17.485 184.527,17.1L169.693,0.329L169.677,0.289L164.734,0.289L164.734,25.849L169.761,25.849L169.761,8.586L169.759,8.586Z" style="fill-rule:nonzero;"/>
    </g>
</svg>
