<?xml version="1.0" encoding="UTF-8" standalone="no"?>
<!DOCTYPE svg PUBLIC "-//W3C//DTD SVG 1.1//EN" "http://www.w3.org/Graphics/SVG/1.1/DTD/svg11.dtd">
<svg width="100%" height="100%" viewBox="0 0 139 27" version="1.1" xmlns="http://www.w3.org/2000/svg" xmlns:xlink="http://www.w3.org/1999/xlink" xml:space="preserve" xmlns:serif="http://www.serif.com/" style="fill-rule:evenodd;clip-rule:evenodd;stroke-linejoin:round;stroke-miterlimit:2;">
    <g transform="matrix(1,0,0,1,-121.935,-219.386)">
        <g transform="matrix(1,0,0,1,0,-0.113)">
            <path d="M127.9,239.608C126.148,238.548 124.219,237.814 122.206,237.442C122.745,236.711 122.835,235.542 122.835,233.842L122.804,224.889C122.829,223.973 122.52,223.078 121.935,222.373C123.581,221.565 125.154,220.615 126.635,219.535L126.756,219.623C126.278,220.811 126.063,222.089 126.127,223.368L126.127,226.732L128.827,224.918C130.099,225.757 131.431,226.5 132.813,227.142C132.504,227.902 132.381,228.725 132.454,229.542L132.543,233.99C132.491,234.821 132.667,235.652 133.053,236.39C131.207,237.242 129.475,238.323 127.9,239.608ZM129.1,228.665C128.231,228.138 127.663,227.758 126.733,227.265L126.194,227.528C126.134,230.308 126.134,234.17 126.134,235.341C127.168,235.693 128.163,236.154 129.1,236.716L129.161,236.716C129.158,234.955 129.1,229.016 129.1,228.665Z" style="fill-rule:nonzero;"/>
        </g>
        <g transform="matrix(1,0,0,1,-93.034,-0.139)">
            <path d="M244.1,236.424C244.486,235.686 244.662,234.855 244.61,234.024L244.699,229.576C244.772,228.759 244.649,227.936 244.34,227.176C245.722,226.534 247.054,225.791 248.326,224.952L251.026,226.766L251.026,223.4C251.09,222.121 250.875,220.843 250.397,219.655L250.518,219.567C251.999,220.647 253.572,221.597 255.218,222.405C254.633,223.11 254.324,224.005 254.349,224.921L254.318,233.874C254.318,235.574 254.408,236.741 254.947,237.474C252.934,237.846 251.005,238.58 249.253,239.64C247.678,238.355 245.946,237.275 244.1,236.424ZM247.991,236.746L248.061,236.746C248.998,236.184 249.993,235.723 251.027,235.371C251.027,234.2 251.027,230.339 250.967,227.558L250.428,227.295C249.498,227.795 248.928,228.173 248.061,228.695C248.052,229.051 247.991,234.99 247.991,236.746Z" style="fill-rule:nonzero;"/>
        </g>
        <g transform="matrix(1,0,0,1,-315.635,0)">
            <path d="M536.386,236.241C536.771,235.502 536.948,234.672 536.896,233.841L536.985,229.393C537.058,228.576 536.935,227.753 536.626,226.993C538.008,226.351 539.34,225.608 540.612,224.769L543.312,226.583L543.312,223.219C543.376,221.94 543.161,220.662 542.683,219.474L542.804,219.386C544.286,220.466 545.858,221.416 547.504,222.224C546.919,222.929 546.61,223.824 546.635,224.74L546.6,233.7C546.6,235.4 546.69,236.567 547.23,237.3C545.217,237.672 543.288,238.406 541.536,239.466C539.962,238.178 538.232,237.095 536.386,236.241ZM540.282,236.563L540.347,236.563C541.284,236.001 542.279,235.541 543.313,235.188C543.313,234.017 543.313,230.156 543.253,227.375L542.714,227.112C541.784,227.612 541.214,227.99 540.347,228.512C540.342,228.868 540.282,234.807 540.282,236.563Z" style="fill-rule:nonzero;"/>
        </g>
        <g transform="matrix(1,0,0,1,-47.109,-17.306)">
            <path d="M193.353,256.684L190.626,254.519C189.87,255.234 189.16,255.996 188.5,256.8C187.21,256.039 185.473,255.161 183.794,254.283C184.146,253.51 184.34,252.675 184.364,251.826L184.424,248.111C184.471,247.376 184.369,246.639 184.124,245.945C185.742,244.778 187.275,243.497 188.71,242.112C190.558,242.689 192.439,243.157 194.343,243.512C193.991,244.395 193.828,245.342 193.864,246.292L193.744,252.699L195.932,254.045L195.932,254.103L193.353,256.684ZM187.719,244.863L187.629,244.863L187.719,252.793L190.267,253.816L190.357,253.816C190.446,252.939 190.537,248.116 190.596,245.508C189.615,245.404 188.65,245.188 187.719,244.863Z" style="fill-rule:nonzero;"/>
        </g>
        <g transform="matrix(1,0,0,1,-152.806,-17.4)">
            <path d="M338.522,256.894C337.653,256.007 336.71,255.194 335.705,254.465C334.746,255.226 333.637,256.104 332.738,256.894C331.784,255.954 330.773,255.075 329.711,254.26C330.431,253.734 330.521,253.207 330.581,251.16L330.7,245.894C329.847,245.447 328.905,245.196 327.943,245.162L327.823,253.324C328.224,253.709 328.678,254.034 329.171,254.29L329.171,254.348C328.362,254.992 326.983,256.162 326.171,256.924C325.332,256.104 324.071,254.993 323.414,254.437C324.134,253.794 324.403,253.037 324.433,250.955L324.494,246.186C323.882,245.726 323.241,245.306 322.576,244.928L325.122,242.236C325.982,243.062 326.883,243.843 327.822,244.577L330.1,242.471C331.084,242.727 332.088,242.903 333.1,242.998C333.339,243.587 333.609,244.163 333.909,244.724L336.277,242.618C337.205,243.086 339.453,244.051 340.593,244.518C340.053,246.016 339.839,247.612 339.963,249.199C339.963,251.043 340.053,252.681 340.083,253.384C340.627,253.731 341.198,254.034 341.791,254.29L341.791,254.348L338.522,256.894ZM334.022,245.337L333.902,253.354L335.67,254.26C336.296,253.522 336.599,252.562 336.509,251.598L336.689,246.069C335.836,245.714 334.942,245.468 334.027,245.338L334.022,245.337Z" style="fill-rule:nonzero;"/>
        </g>
        <g transform="matrix(1,0,0,1,-223.109,-17.316)">
            <path d="M420.408,256.813C418.705,255.766 416.842,255.006 414.893,254.561C415.234,253.313 415.385,252.021 415.343,250.728L415.343,246.457C415.366,245.972 415.262,245.49 415.043,245.057C417.086,244.245 419.059,243.266 420.943,242.132C422.306,242.998 423.764,243.704 425.288,244.239C425.033,244.859 424.92,245.529 424.958,246.198L425.108,251.757C425.084,252.405 425.25,253.047 425.587,253.601C423.735,254.454 421.995,255.533 420.408,256.813ZM421.666,245.813C420.82,245.255 419.915,244.793 418.966,244.437L418.785,244.555L418.665,252.6C419.638,252.986 420.589,253.426 421.513,253.917L421.602,253.917C421.662,252.454 421.662,250.582 421.662,249.148C421.665,248.065 421.7,246.924 421.665,245.813L421.666,245.813Z" style="fill-rule:nonzero;"/>
        </g>
        <g transform="matrix(1,0,0,1,-265.041,-17.4)">
            <path d="M479.96,256.924C479.241,256.244 478.223,255.505 477.144,254.678C477.834,253.821 478.013,252.817 478.013,250.478L478.042,245.987C477.131,245.619 476.172,245.38 475.195,245.277L475.195,253.641C475.608,253.951 476.038,254.237 476.483,254.498L476.483,254.527L473.697,256.832C472.747,256.055 471.744,255.345 470.697,254.705C471.475,254.205 471.776,253.374 471.776,251.75L471.776,245.99C471.205,245.548 470.593,245.162 469.948,244.837C470.849,244.023 471.699,243.155 472.494,242.237C473.328,243.018 474.209,243.749 475.132,244.424C475.938,243.799 476.699,243.117 477.41,242.385C478.518,242.976 480.915,244.04 481.995,244.485C481.583,245.35 481.407,246.308 481.485,247.263L481.485,253.44C482.024,253.824 482.504,254.179 483.043,254.532L483.043,254.562C482.208,255.151 480.95,256.126 479.96,256.924Z" style="fill-rule:nonzero;"/>
        </g>
        <g transform="matrix(1,0,0,1,-360.876,-17.193)">
            <path d="M605.35,256.536L602.623,254.37C601.867,255.085 601.156,255.847 600.495,256.652C599.205,255.891 597.468,255.013 595.789,254.135C596.141,253.362 596.335,252.527 596.359,251.678L596.419,247.963C596.466,247.228 596.364,246.491 596.119,245.797C597.737,244.63 599.27,243.349 600.705,241.964C602.553,242.541 604.434,243.009 606.338,243.364C605.986,244.247 605.823,245.194 605.859,246.144L605.739,252.551L607.927,253.897L607.927,253.955L605.35,256.536ZM599.716,244.715L599.626,244.715L599.716,252.644L602.264,253.667L602.354,253.667C602.443,252.79 602.534,247.967 602.593,245.359C601.612,245.255 600.647,245.039 599.716,244.715Z" style="fill-rule:nonzero;"/>
        </g>
        <g transform="matrix(1,0,0,1,-403.62,-17.32)">
            <path d="M659.873,249.989L659.857,245.643C659.433,245.287 658.982,244.964 658.509,244.677L661,242.131L663.817,244.121C663.356,244.917 663.146,245.835 663.217,246.753L663.238,250.131L663.228,251.216L663.247,256.811C663.238,257.962 663.538,259.094 664.116,260.09C662.47,260.898 660.897,261.848 659.416,262.929L659.295,262.841C659.773,261.653 659.988,260.375 659.924,259.096L659.924,254.969L657.224,256.783C655.976,255.943 654.666,255.2 653.306,254.559C653.615,253.799 653.738,252.976 653.665,252.159L653.642,251.011L653.629,250.13C653.629,248.316 653.689,247.337 653.629,245.815L651.921,244.82L654.168,242.128L657.168,244.118C657.197,245.726 657.168,247.95 657.168,249.94L657.168,251.009C657.178,252.093 657.185,253.033 657.185,253.157C658.054,253.683 658.385,253.941 659.319,254.439L659.858,254.176C659.878,253.261 659.891,252.228 659.9,251.213L659.876,250.128L659.876,249.984" style="fill-rule:nonzero;"/>
        </g>
    </g>
</svg>
