<?xml version="1.0" encoding="UTF-8" standalone="no"?>
<!DOCTYPE svg PUBLIC "-//W3C//DTD SVG 1.1//EN" "http://www.w3.org/Graphics/SVG/1.1/DTD/svg11.dtd">
<svg width="100%" height="100%" viewBox="0 0 249 19" version="1.1" xmlns="http://www.w3.org/2000/svg" xmlns:xlink="http://www.w3.org/1999/xlink" xml:space="preserve" xmlns:serif="http://www.serif.com/" style="fill-rule:evenodd;clip-rule:evenodd;stroke-linejoin:round;stroke-miterlimit:2;">
    <g transform="matrix(1,0,0,1,0.00976562,-0.230682)">
        <path d="M14.907,0.403L8.707,14.086L2.535,0.403L-0.01,0.403L8.242,18.504L9.182,18.504L17.434,0.403L14.907,0.403Z" style="fill-rule:nonzero;"/>
    </g>
    <g transform="matrix(1,0,0,1,0.00976562,-0.230682)">
        <rect x="20.252" y="0.402" width="2.371" height="17.937" style="fill-rule:nonzero;"/>
    </g>
    <g transform="matrix(1,0,0,1,0.00976562,-0.230682)">
        <path d="M44.112,0.403L44.112,2.586L50.269,2.586L50.269,18.342L52.642,18.342L52.642,2.586L58.8,2.586L58.8,0.403L44.112,0.403Z" style="fill-rule:nonzero;"/>
    </g>
    <g transform="matrix(1,0,0,1,0.00976562,-0.230682)">
        <path d="M74.988,9.373C75.001,10.266 74.836,11.152 74.503,11.981C74.171,12.809 73.677,13.563 73.05,14.199C72.423,14.835 71.676,15.339 70.853,15.684C70.029,16.029 69.145,16.206 68.252,16.206C67.36,16.206 66.476,16.029 65.652,15.684C64.829,15.339 64.082,14.835 63.455,14.199C62.828,13.563 62.334,12.809 62.001,11.981C61.669,11.152 61.504,10.266 61.517,9.373C61.504,8.481 61.669,7.594 62.001,6.766C62.334,5.938 62.828,5.184 63.455,4.548C64.082,3.912 64.829,3.407 65.652,3.063C66.476,2.718 67.36,2.541 68.252,2.541C69.145,2.541 70.029,2.718 70.853,3.063C71.676,3.407 72.423,3.912 73.05,4.548C73.677,5.184 74.171,5.938 74.503,6.766C74.836,7.594 75.001,8.481 74.988,9.373ZM68.253,0.235C66.454,0.267 64.704,0.829 63.224,1.852C61.743,2.875 60.598,4.312 59.932,5.983C59.265,7.654 59.107,9.485 59.477,11.246C59.848,13.007 60.73,14.619 62.013,15.88C63.297,17.141 64.924,17.995 66.691,18.335C68.458,18.674 70.286,18.484 71.945,17.789C73.605,17.093 75.022,15.923 76.018,14.424C77.015,12.926 77.547,11.167 77.547,9.368C77.564,8.15 77.334,6.941 76.871,5.815C76.408,4.689 75.722,3.668 74.853,2.814C73.984,1.961 72.952,1.292 71.817,0.849C70.683,0.405 69.47,0.197 68.253,0.235Z" style="fill-rule:nonzero;"/>
    </g>
    <g transform="matrix(1,0,0,1,0.00976562,-0.230682)">
        <path d="M90.097,5.499C90.097,7.015 89.16,8.629 86.531,8.629L83,8.629L83,2.585L86.479,2.585C88.778,2.585 90.097,3.647 90.097,5.499ZM92.544,5.499C92.544,1.977 89.788,0.401 87.068,0.401L80.631,0.401L80.631,18.342L82.998,18.342L82.998,10.812L86.279,10.812L91.577,18.343L94.394,18.343L88.893,10.523C89.961,10.19 90.893,9.521 91.55,8.616C92.208,7.711 92.556,6.618 92.543,5.499" style="fill-rule:nonzero;"/>
    </g>
    <g transform="matrix(1,0,0,1,0.00976562,-0.230682)">
        <rect x="97.42" y="0.402" width="2.373" height="17.937" style="fill-rule:nonzero;"/>
    </g>
    <g transform="matrix(1,0,0,1,0.00976562,-0.230682)">
        <path d="M137.09,13.112C137.07,13.551 136.961,13.981 136.768,14.375C136.575,14.77 136.303,15.121 135.97,15.407C135.636,15.693 135.247,15.907 134.827,16.036C134.407,16.166 133.965,16.208 133.529,16.159L129.967,16.159L129.967,10.167L133.472,10.167C135.772,10.167 137.09,11.24 137.09,13.112ZM133.044,7.984L129.967,7.984L129.967,2.587L133.26,2.587C134.787,2.587 136.417,3.276 136.417,5.205C136.417,7.134 134.722,7.984 133.044,7.984ZM136.798,8.928C137.453,8.558 137.994,8.015 138.364,7.36C138.733,6.704 138.916,5.96 138.894,5.208C138.894,2.822 137.004,0.406 133.392,0.406L127.595,0.406L127.595,18.345L133.177,18.345C134.669,18.345 139.538,17.967 139.538,13.109C139.581,12.211 139.339,11.324 138.847,10.572C138.355,9.82 137.638,9.244 136.798,8.924" style="fill-rule:nonzero;"/>
    </g>
    <g transform="matrix(1,0,0,1,0.00976562,-0.230682)">
        <path d="M142.684,0.403L142.684,18.342L153.121,18.342L153.121,16.159L145.052,16.159L145.052,10.167L152.53,10.167L152.53,7.984L145.052,7.984L145.052,2.586L153.121,2.586L153.121,0.403L142.684,0.403Z" style="fill-rule:nonzero;"/>
    </g>
    <g transform="matrix(1,0,0,1,0.00976562,-0.230682)">
        <path d="M186.012,0.402L177.974,8.361L177.974,0.402L175.605,0.402L175.605,18.341L177.974,18.341L177.974,11.451L179.378,10.048L187.167,18.335L190.242,18.335L180.995,8.456L189.117,0.396L186.012,0.402Z" style="fill-rule:nonzero;"/>
    </g>
    <g transform="matrix(1,0,0,1,0.00976562,-0.230682)">
        <path d="M205.65,0.403L205.65,7.982L195.463,7.982L195.463,0.403L193.096,0.403L193.096,18.342L195.463,18.342L195.463,10.167L205.65,10.167L205.65,18.342L208.021,18.342L208.021,0.403L205.65,0.403Z" style="fill-rule:nonzero;"/>
    </g>
    <g transform="matrix(1,0,0,1,0.00976562,-0.230682)">
        <path d="M110.953,4.686L114.231,11.939L107.662,11.939L110.953,4.686ZM110.485,0.242L102.205,18.342L104.756,18.342L106.708,14.039L115.181,14.039L117.064,18.207L117.126,18.345L119.677,18.345L111.422,0.242L110.485,0.242Z" style="fill-rule:nonzero;"/>
    </g>
    <g transform="matrix(1,0,0,1,0.00976562,-0.230682)">
        <path d="M219.32,4.686L222.598,11.939L216.028,11.939L219.32,4.686ZM218.85,0.242L210.572,18.342L213.122,18.342L215.074,14.039L223.547,14.039L225.431,18.207L225.493,18.345L228.043,18.345L219.791,0.245L218.85,0.242Z" style="fill-rule:nonzero;"/>
    </g>
    <g transform="matrix(1,0,0,1,0.00976562,-0.230682)">
        <path d="M244.905,0.405L239.16,14.252L233.414,0.405L230.315,0.405L230.315,18.342L232.553,18.342L232.553,4.034L238.478,18.201L238.537,18.339L239.777,18.339L245.762,4.031L245.762,18.339L248,18.339L248,0.405L244.905,0.405Z" style="fill-rule:nonzero;"/>
    </g>
    <g transform="matrix(1,0,0,1,0.00976562,-0.230682)">
        <path d="M34.844,2.529C35.981,2.472 37.113,2.716 38.125,3.236C39.138,3.757 39.995,4.535 40.61,5.493L42.338,3.971C41.485,2.788 40.357,1.831 39.051,1.181C37.746,0.531 36.302,0.208 34.844,0.241C33.628,0.215 32.42,0.432 31.289,0.879C30.159,1.326 29.129,1.995 28.26,2.846C27.391,3.696 26.701,4.712 26.23,5.832C25.758,6.953 25.516,8.157 25.516,9.373C25.516,10.588 25.758,11.792 26.23,12.913C26.701,14.034 27.391,15.049 28.26,15.9C29.129,16.75 30.159,17.419 31.289,17.866C32.42,18.313 33.628,18.53 34.844,18.505C36.286,18.537 37.714,18.222 39.009,17.588C40.303,16.953 41.427,16.017 42.284,14.857L40.594,13.3C39.97,14.242 39.113,15.006 38.105,15.516C37.098,16.027 35.975,16.267 34.847,16.213C33.049,16.188 31.333,15.456 30.071,14.175C28.809,12.895 28.101,11.169 28.101,9.371C28.101,7.573 28.809,5.848 30.071,4.567C31.333,3.287 33.049,2.555 34.847,2.529" style="fill-rule:nonzero;"/>
    </g>
    <g transform="matrix(1,0,0,1,0.00976562,-0.230682)">
        <path d="M164.867,2.529C166.004,2.472 167.136,2.716 168.148,3.236C169.161,3.757 170.018,4.535 170.633,5.493L172.361,3.971C171.508,2.788 170.38,1.83 169.074,1.181C167.768,0.531 166.324,0.208 164.866,0.241C163.65,0.215 162.442,0.432 161.311,0.879C160.18,1.326 159.151,1.995 158.282,2.846C157.413,3.696 156.723,4.712 156.251,5.832C155.78,6.953 155.537,8.157 155.537,9.373C155.537,10.588 155.78,11.792 156.251,12.913C156.723,14.034 157.413,15.049 158.282,15.9C159.151,16.75 160.18,17.419 161.311,17.866C162.442,18.313 163.65,18.53 164.866,18.505C166.307,18.537 167.736,18.222 169.03,17.588C170.325,16.953 171.449,16.017 172.306,14.857L170.615,13.3C169.992,14.242 169.134,15.006 168.127,15.516C167.119,16.027 165.997,16.267 164.868,16.213C163.071,16.188 161.355,15.456 160.093,14.175C158.831,12.895 158.123,11.169 158.123,9.371C158.123,7.573 158.831,5.848 160.093,4.567C161.355,3.287 163.071,2.555 164.868,2.529" style="fill-rule:nonzero;"/>
    </g>
</svg>
