<?xml version="1.0" standalone="no"?>
<!DOCTYPE svg PUBLIC "-//W3C//DTD SVG 20010904//EN"
 "http://www.w3.org/TR/2001/REC-SVG-20010904/DTD/svg10.dtd">
<svg version="1.0" xmlns="http://www.w3.org/2000/svg"
 width="300.000000pt" height="139.000000pt" viewBox="0 0 300.000000 139.000000"
 preserveAspectRatio="xMidYMid meet">
<metadata>
Created by potrace 1.10, written by Peter Selinger 2001-2011
</metadata>
<g transform="translate(0.000000,139.000000) scale(0.100000,-0.100000)"
fill="#000000" stroke="none">
<path d="M1595 1261 c-112 -29 -178 -117 -177 -237 1 -194 214 -298 373 -182
37 27 40 31 26 45 -14 14 -19 13 -46 -10 -66 -55 -159 -61 -231 -13 -112 74
-111 258 2 333 59 40 147 40 205 1 33 -22 43 -25 52 -14 32 39 -124 97 -204
77z"/>
<path d="M2659 1256 c-97 -26 -157 -100 -166 -206 -9 -99 37 -189 118 -231 85
-43 184 -34 253 23 l36 29 0 100 0 99 -95 0 c-89 0 -95 -1 -95 -21 0 -19 5
-20 77 -18 l76 2 -2 -74 c-1 -40 -5 -77 -8 -82 -11 -19 -90 -47 -130 -47 -78
0 -139 40 -174 115 -74 159 82 335 238 270 21 -9 45 -23 55 -32 17 -15 20 -15
35 -1 14 15 12 18 -23 42 -34 22 -109 46 -139 45 -5 0 -31 -6 -56 -13z"/>
<path d="M105 1030 l0 -230 105 0 c120 0 163 15 217 71 86 91 83 228 -7 320
-55 57 -92 69 -220 69 l-95 0 0 -230z m253 167 c104 -56 121 -235 29 -313 -43
-36 -62 -42 -156 -45 l-82 -3 0 192 c0 106 1 193 1 195 1 10 181 -12 208 -26z"/>
<path d="M671 1218 c-99 -228 -181 -420 -181 -424 0 -2 9 -4 19 -4 15 0 26 17
48 70 30 75 44 83 93 55 39 -22 103 -19 135 7 16 12 30 18 32 13 34 -92 62
-140 82 -143 l21 -3 -23 53 c-13 29 -59 135 -102 236 -47 107 -84 182 -92 182
-8 0 -22 -19 -32 -42z m102 -255 c-29 -28 -72 -30 -129 -6 l-40 17 42 93 c23
52 45 104 48 116 5 17 16 -1 55 -88 l48 -110 -24 -22z"/>
<path d="M962 1028 c3 -218 4 -233 21 -233 17 0 19 12 18 195 l0 195 32 -39
c18 -22 90 -110 160 -198 70 -87 132 -158 138 -158 5 0 9 93 9 235 0 227 -1
235 -20 235 -19 0 -20 -8 -22 -190 l-3 -189 -150 189 c-91 114 -157 189 -168
190 -16 0 -17 -16 -15 -232z"/>
<path d="M1900 1025 c0 -228 1 -235 20 -235 19 0 20 7 20 235 0 228 -1 235
-20 235 -19 0 -20 -7 -20 -235z"/>
<path d="M2037 1028 c2 -216 4 -233 20 -233 17 0 18 14 18 193 0 105 2 192 5
191 3 0 74 -88 159 -195 84 -107 158 -193 163 -192 5 2 10 100 11 236 l2 232
-24 0 -24 0 5 -190 c2 -104 2 -190 -1 -190 -3 1 -73 86 -156 190 -82 105 -157
190 -165 190 -13 0 -15 -32 -13 -232z"/>
<path d="M905 604 c-89 -33 -144 -118 -145 -223 0 -188 187 -299 347 -206 156
92 144 344 -20 421 -59 27 -122 30 -182 8z m152 -35 c51 -19 98 -74 117 -136
l7 -23 -191 0 -192 0 7 28 c11 45 53 100 92 121 42 22 116 27 160 10z m118
-226 c-12 -51 -40 -97 -77 -127 -104 -82 -273 -15 -295 118 l-6 36 193 0 192
0 -7 -27z"/>
<path d="M110 380 l0 -230 130 0 c125 0 130 1 130 21 0 20 -4 21 -110 17
l-110 -3 0 213 c0 205 -1 212 -20 212 -19 0 -20 -7 -20 -230z"/>
<path d="M445 380 l0 -230 133 0 c122 0 133 2 130 17 -3 16 -17 18 -112 19
l-108 1 -2 91 -1 92 83 0 c75 0 82 2 82 20 0 18 -7 20 -82 20 l-83 0 2 82 2
83 105 0 c94 0 106 2 106 18 0 15 -13 17 -127 17 l-128 0 0 -230z"/>
<path d="M1320 380 c0 -223 1 -230 20 -230 19 0 20 7 20 110 l0 110 80 0 c131
0 180 36 180 131 0 33 -6 47 -34 75 l-34 34 -116 0 -116 0 0 -230z m202 190
c43 -12 58 -34 58 -84 0 -57 -34 -76 -136 -76 l-84 0 0 85 0 85 63 0 c34 0 79
-5 99 -10z"/>
<path d="M1781 588 c-5 -13 -48 -113 -96 -223 -48 -110 -89 -205 -92 -211 -2
-7 4 -10 19 -7 19 4 32 25 68 113 l45 109 41 -40 42 -41 38 41 39 42 45 -110
c36 -88 49 -110 68 -114 12 -2 22 -4 22 -3 0 1 -44 105 -99 231 -99 232 -120
264 -140 213z m57 -114 l29 -70 -29 -33 -30 -33 -33 32 -33 32 30 74 c17 41
32 73 34 71 2 -2 17 -35 32 -73z"/>
<path d="M2080 380 c0 -223 1 -230 20 -230 19 0 20 7 20 110 l0 110 59 0 c72
0 88 -16 122 -117 28 -87 70 -132 127 -140 38 -5 42 -4 42 16 0 17 -6 21 -31
21 -44 0 -79 42 -107 128 -13 39 -27 74 -32 77 -15 9 -12 25 4 25 27 0 75 50
82 85 9 49 -12 103 -50 126 -26 16 -50 19 -143 19 l-113 0 0 -230z m246 166
c26 -30 30 -53 13 -89 -16 -36 -50 -47 -139 -47 l-80 0 0 86 0 86 91 -4 c85
-4 94 -6 115 -32z"/>
<path d="M2520 380 l0 -230 104 0 c94 0 109 3 157 28 172 90 153 359 -30 421
-19 6 -78 11 -132 11 l-99 0 0 -230z m238 173 c20 -10 49 -35 66 -56 41 -51
49 -143 17 -204 -40 -80 -78 -99 -213 -106 l-68 -3 0 200 0 199 81 -6 c46 -4
97 -14 117 -24z"/>
</g>
</svg>
