<?xml version="1.0" encoding="UTF-8" standalone="no"?>
<!DOCTYPE svg PUBLIC "-//W3C//DTD SVG 1.1//EN" "http://www.w3.org/Graphics/SVG/1.1/DTD/svg11.dtd">
<svg width="100%" height="100%" viewBox="0 0 1547 751" version="1.1" xmlns="http://www.w3.org/2000/svg" xmlns:xlink="http://www.w3.org/1999/xlink" xml:space="preserve" xmlns:serif="http://www.serif.com/" style="fill-rule:evenodd;clip-rule:evenodd;stroke-linejoin:round;stroke-miterlimit:2;">
    <g>
        <path d="M1467.29,21.315L759.092,21.315L759.092,729.511L1467.29,729.511L1467.29,21.315ZM1024.01,212.285C1024.01,191.404 1040.54,174.874 1060.99,174.439L1165.83,174.439L1165.83,207.5L1065.77,207.5C1063.16,207.5 1060.99,209.675 1060.99,212.285L1060.99,251.871L1156.69,251.871L1156.69,284.931L1060.99,284.931L1060.99,326.257C1060.99,328.867 1063.16,331.042 1065.77,331.042L1165.83,331.042L1165.83,364.103L1060.99,364.103C1040.54,363.668 1024.01,346.703 1024.01,326.257L1024.01,212.285ZM1004.44,419.784L900.905,419.784C898.295,419.784 896.12,421.959 896.12,424.569L896.12,464.155L995.302,464.155L995.302,497.216L896.12,497.216L896.12,538.542C896.12,541.152 898.295,543.327 900.905,543.327L1004,543.327L1004,576.388L896.12,576.388C875.674,575.953 859.144,558.987 859.144,538.542L859.144,424.569C859.144,404.124 875.674,387.158 896.12,386.723L1004.44,386.723L1004.44,419.784ZM1004,349.748C1004,357.578 997.477,364.103 990.082,364.103L979.206,364.103C973.986,364.103 969.636,361.493 967.026,358.013L896.12,247.52L896.12,364.103L859.144,364.103L859.144,188.359C859.144,180.529 865.669,174.004 873.499,174.004L884.374,174.004C889.594,174.004 893.945,176.614 896.555,180.094L967.461,290.151L967.461,174.439L1004.44,174.439L1004.44,349.748L1004,349.748ZM1151.91,576.388L1113.19,497.216L1066.21,497.216L1078.82,468.505C1079.69,465.895 1082.3,464.59 1084.91,464.59L1143.2,464.59C1145.82,464.59 1147.99,462.415 1147.99,459.805L1147.99,425.004C1147.99,422.394 1145.82,420.219 1143.2,420.219L1065.77,420.219C1063.16,420.219 1060.99,422.394 1060.99,425.004L1060.99,576.823L1024.01,576.823L1024.01,424.569C1024.01,404.124 1040.54,387.158 1060.99,386.723L1148.43,386.723C1168.87,387.158 1185.4,404.124 1185.4,424.569L1185.4,459.805C1185.4,478.945 1171.05,494.171 1153.21,497.216L1194.97,576.388L1151.91,576.388ZM1367.67,576.388L1330.26,576.388L1330.26,497.216L1251.52,497.216L1264.14,468.505C1265.01,465.895 1267.62,464.59 1270.23,464.59L1330.26,464.59L1330.26,425.004C1330.26,422.394 1328.08,420.219 1325.47,420.219L1250.65,420.219C1248.04,420.219 1245.87,422.394 1245.87,425.004L1245.87,576.823L1208.89,576.823L1208.89,424.569C1208.89,404.124 1225.42,387.158 1245.87,386.723L1330.69,386.723C1351.14,387.158 1367.67,404.124 1367.67,424.569L1367.67,576.388ZM1367.23,326.257C1367.23,346.703 1350.7,363.668 1330.26,364.103L1222.38,364.103C1201.93,363.668 1185.4,346.703 1185.4,326.257L1185.4,174.439L1222.38,174.439L1222.38,326.257C1222.38,328.867 1224.55,331.042 1227.16,331.042L1257.61,331.042L1257.61,174.439L1294.59,174.439L1294.59,331.042L1325.04,331.042C1327.65,331.042 1329.82,328.867 1329.82,326.257L1329.82,174.439L1366.8,174.439L1366.8,326.257L1367.23,326.257ZM555.072,288.411C536.802,284.931 393.248,259.701 393.248,259.701C384.983,240.995 361.058,221.42 327.127,212.72L115.277,159.648C94.397,154.428 77.867,169.219 80.912,190.969C80.912,190.969 129.198,549.852 131.808,569.427C134.418,589.873 153.558,598.573 173.569,591.613C192.274,584.653 348.877,523.316 373.673,513.746C407.169,500.696 425.439,498.521 431.529,514.181C441.1,539.412 470.68,540.282 505.916,520.706C537.672,502.871 669.915,426.309 669.915,426.309C669.915,426.309 609.013,330.172 602.488,319.732C593.353,304.942 581.173,293.196 555.072,288.411ZM560.292,307.987C572.472,309.292 579.868,315.382 584.218,321.472C585.523,323.212 589.438,330.172 589.438,330.172L454.15,326.257L438.489,294.066C438.924,294.066 550.287,306.682 560.292,307.987ZM144.423,200.974L224.03,217.07C224.03,217.07 230.555,239.69 231.425,242.735C231.86,230.12 243.17,220.985 257.96,224.03C272.751,227.075 295.806,231.86 305.377,233.6C347.572,241.865 367.148,249.26 382.808,285.366L432.399,400.209C421.524,393.249 407.604,390.639 371.933,395.424L363.233,396.729C363.233,396.729 338.437,328.867 330.607,308.422C323.212,287.976 314.077,275.796 290.151,272.751C283.626,271.881 238.385,266.661 238.385,266.661L278.841,407.604L188.794,418.914L144.423,200.974ZM643.814,418.479C643.814,418.479 548.982,460.675 524.621,471.55C494.606,485.036 468.07,483.296 458.5,461.545C454.15,451.54 434.574,451.975 397.599,462.85L208.804,517.661L195.754,453.28C195.754,453.28 346.702,425.439 381.503,418.914C416.304,412.389 438.924,416.304 448.495,438.055C451.105,443.71 451.975,446.32 451.975,446.32L628.589,394.554L643.814,418.479ZM617.278,375.848L489.386,399.339L471.985,363.668L603.793,354.098L617.278,375.848Z" style="fill:white;fill-rule:nonzero;"/>
        <path d="M1185.4,459.805L1185.4,424.569C1185.4,404.124 1168.87,387.158 1148.42,386.723L1060.99,386.723C1040.54,387.158 1024.01,404.124 1024.01,424.569L1024.01,576.388L1060.99,576.388L1060.99,424.569C1060.99,421.959 1063.16,419.784 1065.77,419.784L1143.2,419.784C1145.81,419.784 1147.99,421.959 1147.99,424.569L1147.99,459.37C1147.99,461.98 1145.81,464.155 1143.2,464.155L1084.91,464.155C1082.3,464.155 1079.69,465.895 1078.82,468.07L1066.21,496.781L1113.19,496.781L1151.9,575.953L1194.97,575.953L1153.21,496.781C1171.05,494.171 1185.4,478.51 1185.4,459.805ZM967.026,290.586L896.119,180.529C893.509,176.614 888.724,174.439 883.939,174.439L873.064,174.439C865.234,174.439 858.709,180.964 858.709,188.794L858.709,364.538L895.684,364.538L895.684,247.52L966.591,357.578C969.201,361.058 973.986,363.668 978.771,363.668L989.646,363.668C997.477,363.668 1003.57,357.143 1003.57,349.313L1003.57,174.439L966.591,174.439L966.591,290.586L967.026,290.586ZM896.119,386.723C875.674,387.158 859.144,404.124 859.144,424.569L859.144,538.542C859.144,558.987 875.674,575.953 896.119,576.388L1004.44,576.388L1004.44,543.327L901.34,543.327C898.729,543.327 896.554,541.152 896.554,538.542L896.554,497.216L995.737,497.216L995.737,464.155L896.119,464.155L896.119,424.569C896.119,421.959 898.294,419.784 900.905,419.784L1004,419.784L1004,386.723L896.119,386.723ZM1060.99,364.103L1165.83,364.103L1165.83,331.042L1065.77,331.042C1063.16,331.042 1060.99,328.867 1060.99,326.257L1060.99,284.931L1156.69,284.931L1156.69,251.87L1060.99,251.87L1060.99,212.285C1060.99,209.674 1063.16,207.499 1065.77,207.499L1165.83,207.499L1165.83,174.439L1060.99,174.439C1040.54,174.874 1024.01,191.839 1024.01,212.285L1024.01,326.257C1024.01,346.703 1040.54,363.233 1060.99,364.103ZM1330.26,326.257C1330.26,328.867 1328.08,331.042 1325.47,331.042L1295.02,331.042L1295.02,174.439L1258.05,174.439L1258.05,331.042L1227.6,331.042C1224.99,331.042 1222.81,328.867 1222.81,326.257L1222.81,174.439L1185.84,174.439L1185.84,326.257C1185.84,346.703 1202.37,363.668 1222.81,364.103L1331.13,364.103C1351.57,363.668 1368.1,346.703 1368.1,326.257L1368.1,174.439L1331.13,174.439L1331.13,326.257L1330.26,326.257ZM1330.26,386.723L1245.43,386.723C1224.99,387.158 1208.46,404.124 1208.46,424.569L1208.46,576.388L1245.43,576.388L1245.43,424.569C1245.43,421.959 1247.61,419.784 1250.22,419.784L1325.04,419.784C1327.65,419.784 1329.82,421.959 1329.82,424.569L1329.82,464.155L1270.23,464.155C1267.62,464.155 1265.01,465.895 1264.14,468.07L1251.52,496.781L1330.26,496.781L1330.26,575.953L1367.23,575.953L1367.23,424.569C1367.23,404.124 1350.7,387.158 1330.26,386.723ZM589.438,330.172C589.438,330.172 585.088,323.212 584.218,321.472C580.302,314.947 572.472,309.292 560.292,307.987C550.287,306.682 438.924,294.066 438.924,294.066L454.585,326.257L589.438,330.172ZM237.95,266.226C237.95,266.226 282.756,271.881 289.716,272.316C314.077,275.361 322.777,287.541 330.172,307.987C337.567,328.432 362.798,396.294 362.798,396.294L371.498,394.989C407.169,390.203 421.524,392.814 431.964,399.774L382.808,284.931C367.148,248.825 347.572,241.43 305.376,233.165C295.806,231.425 272.751,226.64 257.96,223.595C243.17,220.55 231.86,229.685 231.425,242.3C230.99,239.69 224.03,216.635 224.03,216.635L144.423,200.539L188.794,418.044L278.841,406.734L237.95,266.226ZM448.495,438.055C439.359,416.304 416.739,412.824 381.503,418.914C346.702,425.439 195.754,453.28 195.754,453.28L208.804,517.661L397.598,462.415C434.574,451.54 454.15,451.105 458.5,461.11C468.07,483.296 494.606,484.601 524.621,471.115C548.982,460.24 643.814,418.044 643.814,418.044L629.024,394.119L452.41,446.32C452.41,446.32 451.105,443.275 448.495,438.055ZM489.385,398.904L617.278,375.848L603.793,353.663L472.42,363.668L489.385,398.904Z" style="fill:white;fill-rule:nonzero;"/>
        <path d="M759.091,21.315L1467.29,21.315L1467.29,729.511L759.091,729.511L759.091,21.315ZM506.351,520.706C471.115,540.717 441.969,539.412 431.964,514.181C425.874,498.521 407.603,500.696 374.108,513.746C349.312,523.316 193.144,585.088 174.003,591.613C153.993,598.573 134.852,589.873 132.242,569.427C129.632,549.417 81.346,190.969 81.346,190.969C78.301,169.219 94.832,154.428 115.712,159.648L327.562,212.72C361.927,221.42 385.418,240.995 393.683,259.701C393.683,259.701 536.801,285.366 555.507,288.411C581.607,293.196 593.787,304.942 602.923,319.732C609.013,330.172 670.349,426.309 670.349,426.309C670.349,426.309 537.671,502.871 506.351,520.706Z" style="fill:white;fill-rule:nonzero;"/>
        <path d="M1060.99,424.569C1060.99,421.959 1063.16,419.784 1065.77,419.784L1143.2,419.784C1145.81,419.784 1147.99,421.959 1147.99,424.569L1147.99,459.37C1147.99,461.98 1145.81,464.155 1143.2,464.155L1084.91,464.155C1082.3,464.155 1079.69,465.895 1078.82,468.07L1066.21,496.781L1113.19,496.781L1151.9,575.953L1194.97,575.953L1153.21,496.781C1171.05,493.736 1185.4,478.51 1185.4,459.37L1185.4,424.134C1185.4,403.689 1168.87,386.723 1148.42,386.288L1060.99,386.288C1040.54,386.723 1024.01,403.689 1024.01,424.134L1024.01,575.953L1060.99,575.953L1060.99,424.569ZM896.119,247.52L967.026,357.578C969.636,361.058 974.421,363.668 979.206,363.668L990.082,363.668C997.912,363.668 1004,357.143 1004,349.313L1004,174.439L967.026,174.439L967.026,290.586L896.119,180.529C893.509,176.614 888.724,174.439 883.939,174.439L873.064,174.439C865.234,174.439 858.709,180.964 858.709,188.794L858.709,364.538L895.684,364.538L895.684,247.52L896.119,247.52ZM896.119,576.388L1004.44,576.388L1004.44,543.327L901.34,543.327C898.729,543.327 896.554,541.152 896.554,538.542L896.554,497.216L995.737,497.216L995.737,464.155L896.119,464.155L896.119,424.569C896.119,421.959 898.294,419.784 900.905,419.784L1004,419.784L1004,386.723L896.119,386.723C875.674,387.158 859.144,404.124 859.144,424.569L859.144,538.542C859.144,558.987 875.674,575.518 896.119,576.388ZM1060.99,364.103L1165.83,364.103L1165.83,331.042L1065.77,331.042C1063.16,331.042 1060.99,328.867 1060.99,326.257L1060.99,284.931L1156.69,284.931L1156.69,251.87L1060.99,251.87L1060.99,212.285C1060.99,209.674 1063.16,207.499 1065.77,207.499L1165.83,207.499L1165.83,174.439L1060.99,174.439C1040.54,174.874 1024.01,191.839 1024.01,212.285L1024.01,326.257C1024.01,346.703 1040.54,363.233 1060.99,364.103ZM1222.38,364.103L1330.69,364.103C1351.14,363.668 1367.67,346.703 1367.67,326.257L1367.67,174.439L1330.69,174.439L1330.69,326.257C1330.69,328.867 1328.52,331.042 1325.91,331.042L1295.46,331.042L1295.46,174.439L1258.48,174.439L1258.48,331.042L1228.03,331.042C1225.42,331.042 1223.25,328.867 1223.25,326.257L1223.25,174.439L1186.27,174.439L1186.27,326.257C1185.4,346.703 1201.5,363.668 1222.38,364.103ZM1330.26,386.723L1245.43,386.723C1224.99,387.158 1208.46,404.124 1208.46,424.569L1208.46,576.388L1245.43,576.388L1245.43,424.569C1245.43,421.959 1247.61,419.784 1250.22,419.784L1325.04,419.784C1327.65,419.784 1329.82,421.959 1329.82,424.569L1329.82,464.155L1270.23,464.155C1267.62,464.155 1265.01,465.895 1264.14,468.07L1251.52,496.781L1330.26,496.781L1330.26,575.953L1367.23,575.953L1367.23,424.569C1367.23,404.124 1350.7,387.158 1330.26,386.723ZM589.438,330.172C589.438,330.172 585.088,323.212 584.218,321.472C580.302,314.947 572.472,309.292 560.292,307.987C550.287,306.682 438.924,294.066 438.924,294.066L454.585,326.257L589.438,330.172ZM237.95,266.226C237.95,266.226 282.756,271.881 289.716,272.316C314.077,275.361 322.777,287.541 330.172,307.987C337.567,328.432 362.798,396.294 362.798,396.294L371.498,394.989C407.169,390.203 421.524,392.814 431.964,399.774L382.808,284.931C367.148,248.825 347.572,241.43 305.376,233.165C295.806,231.425 272.751,226.64 257.96,223.595C243.17,220.55 231.86,229.685 231.425,242.3C230.99,239.69 224.03,216.635 224.03,216.635L144.423,200.539L188.794,418.044L278.841,406.734L237.95,266.226ZM448.495,438.055C439.359,416.304 416.739,412.824 381.503,418.914C346.702,425.439 195.754,453.28 195.754,453.28L208.804,517.661L397.598,462.415C434.574,451.54 454.15,451.105 458.5,461.11C468.07,483.296 494.606,484.601 524.621,471.115C548.982,460.24 643.814,418.044 643.814,418.044L629.024,394.119L452.41,446.32C452.41,446.32 451.105,443.275 448.495,438.055ZM489.385,398.904L617.278,375.848L603.793,353.663L472.42,363.668L489.385,398.904Z" style="fill-rule:nonzero;"/>
        <path d="M1534.71,723.421C1534.71,718.636 1531.67,716.026 1525.58,716.026L1516.01,716.026L1516.01,741.256L1519.92,741.256L1519.92,730.381L1524.27,730.381L1530.8,741.256L1535.15,741.256L1527.75,729.946C1531.67,729.946 1534.71,727.771 1534.71,723.421ZM1519.92,727.336L1519.92,719.506L1525.14,719.506C1529.49,719.506 1530.8,720.811 1530.8,723.421C1530.8,726.031 1529.06,727.336 1524.71,727.336L1519.92,727.336Z" style="fill-rule:nonzero;"/>
        <path d="M1546.89,728.641C1546.89,716.026 1536.89,706.891 1524.71,706.891C1512.53,706.891 1502.52,716.026 1502.52,728.641C1502.52,741.256 1512.53,750.392 1524.71,750.392C1536.45,750.827 1546.89,741.256 1546.89,728.641ZM1524.71,746.911C1514.7,746.911 1506.87,739.081 1506.87,728.641C1506.87,718.201 1514.7,710.371 1524.71,710.371C1534.71,710.371 1542.54,718.201 1542.54,728.641C1542.54,739.516 1534.71,746.911 1524.71,746.911ZM1485.99,747.781L1485.99,0L0,0L0,747.781M506.351,520.706C471.115,540.717 441.97,539.412 431.965,514.181C425.874,498.521 407.604,500.696 374.108,513.746C349.313,523.316 193.144,585.088 174.004,591.613C153.993,598.573 134.853,589.873 132.243,569.427C129.633,549.417 81.347,190.969 81.347,190.969C78.302,169.219 94.832,154.428 115.713,159.649L327.562,212.72C361.928,221.42 385.418,240.995 393.684,259.701C393.684,259.701 536.802,285.366 555.507,288.411C581.608,293.196 593.788,304.942 602.923,319.732C609.013,330.172 670.35,426.309 670.35,426.309C670.35,426.309 537.672,502.871 506.351,520.706ZM1467.29,729.511L759.092,729.511L759.092,21.316L1467.29,21.316L1467.29,729.511Z" style="fill-rule:nonzero;"/>
    </g>
</svg>
