<?xml version="1.0" encoding="UTF-8" standalone="no"?>
<!DOCTYPE svg PUBLIC "-//W3C//DTD SVG 1.1//EN" "http://www.w3.org/Graphics/SVG/1.1/DTD/svg11.dtd">
<svg width="100%" height="100%" viewBox="0 0 752 210" version="1.1" xmlns="http://www.w3.org/2000/svg" xmlns:xlink="http://www.w3.org/1999/xlink" xml:space="preserve" xmlns:serif="http://www.serif.com/" style="fill-rule:evenodd;clip-rule:evenodd;stroke-linejoin:round;stroke-miterlimit:2;">
    <g>
        <g transform="matrix(1,0,0,1,396,39)">
            <path d="M0,0L170,0L170,6C168.783,6.227 167.566,6.454 166.313,6.688C161.963,7.8 159.814,9.404 157,13C153.629,19.12 151.513,25.244 149.563,31.938C149.261,32.95 148.96,33.963 148.649,35.006C147.759,38.002 146.879,41.001 146,44C145.538,45.561 145.076,47.123 144.613,48.684C143.596,52.121 142.588,55.561 141.584,59.002C140.804,61.672 140.017,64.339 139.231,67.006C136.973,74.667 134.735,82.333 132.5,90C131.61,93.051 130.72,96.102 129.83,99.153C129.302,100.964 128.775,102.774 128.248,104.585C125.964,112.437 123.671,120.269 121,128L103,128C99.625,119 99.625,119 98.558,115.787C98.318,115.067 98.078,114.347 97.831,113.605C97.584,112.859 97.337,112.113 97.082,111.344C96.82,110.556 96.558,109.768 96.288,108.957C95.461,106.472 94.637,103.986 93.813,101.5C93.248,99.802 92.684,98.104 92.119,96.406C90.744,92.271 89.372,88.136 88,84C84.088,92.509 80.719,101.218 77.313,109.938C76.423,112.211 75.533,114.484 74.642,116.756C74.091,118.161 73.541,119.567 72.993,120.973C71.112,125.777 71.112,125.777 70,128L49,128C45.972,119.127 43.001,110.302 40.563,101.25C38.765,94.581 36.757,88.007 34.625,81.438C32.152,73.794 29.875,66.122 27.75,58.375C24.952,48.217 21.99,38.113 18.934,28.03C18.438,26.39 17.944,24.749 17.452,23.107C16.759,20.8 16.059,18.495 15.355,16.191C15.147,15.494 14.939,14.796 14.725,14.077C13.812,11.117 13.224,9.224 11,7C8.338,6.537 8.338,6.537 5.375,6.375C4.372,6.3 3.369,6.225 2.336,6.148C1.565,6.099 0.794,6.05 0,6L0,0Z" style="fill:rgb(174,3,14);fill-rule:nonzero;"/>
        </g>
        <g transform="matrix(1,0,0,1,8,39)">
            <path d="M0,0L118,0L118,6C117.25,6.04 116.5,6.08 115.727,6.121C106.552,7.057 102.227,10.445 96,17C94.438,18.521 92.875,20.042 91.313,21.563C87.362,25.568 83.636,29.709 80,34C79.185,34.914 78.371,35.828 77.531,36.77C76.696,37.732 75.861,38.695 75,39.688C74.216,40.578 73.433,41.469 72.625,42.387C70.751,44.819 70.751,44.819 71.202,47.32C72.123,50.414 73.444,52.746 75.148,55.488C75.815,56.572 76.482,57.656 77.168,58.772C77.904,59.952 78.639,61.132 79.375,62.313C80.926,64.825 82.471,67.34 84.016,69.855C84.419,70.51 84.822,71.165 85.237,71.84C88.244,76.736 91.191,81.665 94.109,86.613C94.53,87.325 94.95,88.038 95.383,88.771C97.032,91.568 98.68,94.365 100.32,97.166C106.994,110.817 106.994,110.817 117,121C118.537,121.225 120.08,121.408 121.625,121.562C122.851,121.688 122.851,121.688 124.102,121.816C124.728,121.877 125.355,121.938 126,122L126,128L0,128L0,122C0.771,121.939 1.542,121.879 2.336,121.816C3.339,121.733 4.342,121.649 5.375,121.562C6.373,121.481 7.37,121.4 8.398,121.316C10.979,121.15 10.979,121.15 13,120L13,8C10.431,6.716 8.234,6.67 5.375,6.437C3.871,6.312 3.871,6.312 2.336,6.184C1.565,6.123 0.794,6.062 0,6L0,-0Z" style="fill:rgb(173,2,13);fill-rule:nonzero;"/>
        </g>
        <g transform="matrix(1,0,0,1,235,79)">
            <path d="M0,0C0.496,-0.266 0.993,-0.531 1.504,-0.805C2.183,-1.158 2.863,-1.511 3.563,-1.875C4.554,-2.397 4.554,-2.397 5.566,-2.93C15.249,-7.188 26.91,-7.721 37,-4.438C45.301,-0.86 50.173,4.255 53.992,12.375C57.8,22.292 57,27.116 57,39L10,39C10.749,61.147 10.749,61.147 20,81C25.913,82.971 32.632,82.997 38.375,80.438C43.436,77.503 46.042,73.299 48.25,68C49.08,64.681 49.593,61.396 50,58L56,58C55.963,67.525 53.521,74.984 47.07,82.141C39.09,89.53 30.565,91.356 19.867,91.211C8.577,90.38 0.194,84.55 -7.59,76.711C-9,75 -9,75 -10.066,72.852C-10.859,70.822 -10.859,70.822 -13,70C-13.062,70.99 -13.124,71.98 -13.188,73C-14.076,79.084 -17.246,83.611 -22,87.375C-27.881,90.56 -32.266,91.34 -38.875,91.313C-39.652,91.329 -40.43,91.345 -41.23,91.361C-48.882,91.368 -54.719,89.057 -60.422,83.855C-64.95,78.532 -66.841,71.553 -66.504,64.641C-64.886,56.162 -60.268,49.136 -53.625,43.75C-41.284,35.522 -30.472,33.694 -16,34C-16.081,29.603 -16.194,25.208 -16.313,20.813C-16.346,18.944 -16.346,18.944 -16.381,17.037C-16.416,15.835 -16.452,14.633 -16.488,13.395C-16.514,12.29 -16.541,11.185 -16.568,10.046C-17.049,6.656 -17.94,4.717 -20,2C-24.287,0.856 -29.026,0.996 -33.02,3.027C-35.653,5.135 -36.931,6.793 -38,10C-38.233,13.517 -38.381,17.033 -38.523,20.555C-39.132,24.952 -40.701,27.551 -43.625,30.813C-47.34,32.67 -50.935,32.681 -55,32C-57.976,29.863 -59.812,27.466 -61,24C-61.69,18.022 -60.426,13.822 -57,9C-42.646,-6.482 -18.181,-12.12 0,0Z" style="fill:rgb(174,4,15);fill-rule:nonzero;"/>
        </g>
        <g transform="matrix(1,0,0,1,602,77)">
            <path d="M0,0C10.043,7.018 13.137,15.55 16,27L16,41L-31,41C-30.992,63.211 -30.992,63.211 -21.234,82.75C-16.641,85.32 -11.085,84.6 -6,84C-3.499,82.932 -2.081,81.8 0,80L2,80C5.419,73.425 7.601,67.26 9,60L14,60C14.603,69.641 12.335,76.337 6.238,83.883C-0.737,90.48 -9.666,93.272 -19.031,93.148C-30.29,92.585 -40.318,88.86 -48.113,80.496C-56.695,69.143 -59.397,57.067 -59.313,43.063C-59.308,42.095 -59.303,41.128 -59.298,40.132C-59.186,33.364 -58.638,27.301 -56,21C-55.671,20.157 -55.343,19.314 -55.004,18.445C-50.591,8.398 -43.531,2.052 -33.48,-2.125C-22.923,-5.849 -9.864,-5.469 0,0Z" style="fill:rgb(174,4,15);fill-rule:nonzero;"/>
        </g>
        <g transform="matrix(1,0,0,1,159,66)">
            <path d="M0,0L5,0C5.094,14.265 5.164,28.531 5.207,42.796C5.228,49.421 5.256,56.046 5.302,62.67C5.345,69.07 5.369,75.469 5.38,81.869C5.387,84.304 5.401,86.739 5.423,89.174C5.452,92.599 5.456,96.023 5.454,99.448C5.468,100.443 5.483,101.438 5.498,102.463C5.435,113.242 2.401,123.018 -5,131C-13.422,139.194 -24.291,140.327 -35.521,140.387C-42.727,140.249 -48.281,138.463 -53.641,133.473C-56.767,129.942 -58.767,126.783 -59.375,122.125C-58.803,117.362 -56.46,114.51 -53.188,111.125C-49.969,109.47 -47.568,109.624 -44,110C-41.188,110.938 -41.188,110.938 -39,113C-37.923,115.935 -37.484,118.919 -37,122C-36.631,123.855 -36.257,125.71 -35.875,127.563C-35.582,129.041 -35.29,130.521 -35,132C-29.951,132.466 -29.951,132.466 -25.625,130.188C-23.247,126.986 -22.875,124.448 -22.88,120.577C-22.878,119.673 -22.877,118.768 -22.876,117.836C-22.879,116.847 -22.883,115.857 -22.886,114.837C-22.886,113.793 -22.886,112.749 -22.886,111.673C-22.887,108.216 -22.895,104.758 -22.902,101.301C-22.904,98.906 -22.906,96.511 -22.907,94.117C-22.91,87.809 -22.92,81.501 -22.931,75.193C-22.942,68.758 -22.946,62.323 -22.951,55.889C-22.962,43.259 -22.979,30.63 -23,18C-25.702,16.649 -28.118,16.661 -31.125,16.438C-32.769,16.312 -32.769,16.312 -34.445,16.184C-35.71,16.093 -35.71,16.093 -37,16L-37,10C-36.219,9.985 -35.437,9.971 -34.633,9.956C-31.067,9.881 -27.502,9.784 -23.938,9.688C-22.708,9.665 -21.479,9.642 -20.213,9.619C-11.187,9.383 -11.187,9.383 -3,6C-1.022,2.966 -1.022,2.966 0,0Z" style="fill:rgb(174,4,15);fill-rule:nonzero;"/>
        </g>
        <g transform="matrix(1,0,0,1,326,66)">
            <path d="M0,0L5,0C5.495,10.395 5.495,10.395 6,21C7.65,18.36 9.3,15.72 11,13C13.098,11.16 13.098,11.16 15.063,10.063C15.713,9.682 16.364,9.302 17.035,8.91C23.036,6.13 30.02,6.026 36.25,8.063C41.639,11.86 45.681,16.405 47,23C47.692,29.74 47.067,36.171 42.711,41.609C40.055,44.137 38.043,44.993 34.438,45.563C30.476,44.914 28.812,43.812 26,41C23.122,35.245 25.148,26.443 25.781,20.25C26.032,18.045 26.032,18.045 26,16C20.379,15.563 20.379,15.563 15.25,17.5C6.518,27.202 5.527,41.115 5.672,53.609C5.674,54.743 5.676,55.876 5.678,57.044C5.684,59.41 5.698,61.776 5.719,64.143C5.75,67.783 5.76,71.422 5.766,75.063C5.775,77.37 5.785,79.677 5.797,81.984C5.801,83.076 5.805,84.167 5.81,85.292C5.819,86.291 5.829,87.29 5.839,88.319C5.849,89.643 5.849,89.643 5.86,90.993C5.779,92.998 5.779,92.998 7,94C8.682,94.233 10.371,94.413 12.063,94.563C13.441,94.688 13.441,94.688 14.848,94.816C15.558,94.877 16.268,94.938 17,95L17,101L-36,101L-36,95C-35.229,94.939 -34.458,94.879 -33.664,94.816C-32.661,94.733 -31.658,94.649 -30.625,94.563C-29.627,94.481 -28.63,94.4 -27.602,94.316C-25.021,94.15 -25.021,94.15 -23,93L-23,18C-25.569,16.716 -27.766,16.67 -30.625,16.438C-31.628,16.354 -32.631,16.27 -33.664,16.184C-34.435,16.123 -35.206,16.062 -36,16L-36,10C-35.183,9.991 -34.366,9.981 -33.525,9.972C-29.808,9.918 -26.092,9.834 -22.375,9.75C-21.09,9.736 -19.805,9.722 -18.48,9.707C-9.384,9.638 -9.384,9.638 -2,5C-0.588,2.396 -0.588,2.396 0,0Z" style="fill:rgb(174,3,14);fill-rule:nonzero;"/>
        </g>
        <g transform="matrix(1,0,0,1,725.199,75.3203)">
            <path d="M0,0C2.388,0.901 4.287,1.137 6.801,0.68C7.461,-0.31 8.121,-1.3 8.801,-2.32L12.801,-2.32L12.801,28.68L6.801,28.68C6.654,27.918 6.507,27.156 6.355,26.371C4.535,17.993 2.072,11.117 -4.762,5.617C-10.592,4.027 -17.738,2.974 -23.34,5.734C-25.455,7.47 -26.974,9.23 -28.199,11.68C-28.562,16.038 -28.575,18.74 -26.949,22.805C-20.855,29.176 -12.146,31.751 -4.012,34.68C5.73,38.219 13.453,42.434 18.801,51.68C21.877,59.091 21.939,67.333 19.238,74.867C15.023,84.169 9.002,88.834 -0.243,92.488C-5.778,94.498 -10.643,95.156 -16.512,95.055C-17.336,95.049 -18.161,95.043 -19.01,95.037C-24.847,94.914 -30.164,94.096 -35.754,92.336C-38.337,91.643 -40.538,91.565 -43.199,91.68C-43.529,92.67 -43.859,93.66 -44.199,94.68L-49.199,94.68L-49.199,61.68L-42.199,61.68C-42.101,62.309 -42.003,62.938 -41.902,63.586C-40.406,72.149 -38.055,78.966 -31.199,84.68C-26.71,87.336 -23.401,88.089 -18.199,88.055C-17.024,88.062 -15.848,88.07 -14.637,88.078C-10,87.541 -6.546,86.166 -3.387,82.68C-1.003,78.665 -0.81,75.271 -1.199,70.68C-3.596,64.974 -7.356,63.241 -12.785,60.965C-17.547,59.172 -22.346,57.485 -27.184,55.91C-35.892,52.99 -43.052,47.83 -47.309,39.512C-50.228,31.732 -50.245,23.614 -47.297,15.84C-43.024,7.432 -35.256,1.598 -26.574,-1.695C-17.752,-3.41 -8.378,-3.313 0,0Z" style="fill:rgb(174,5,16);fill-rule:nonzero;"/>
        </g>
        <g transform="matrix(1,0,0,1,654,66)">
            <path d="M0,0L5,0C5.01,1.163 5.021,2.326 5.031,3.524C5.129,14.458 5.232,25.392 5.339,36.325C5.395,41.947 5.448,47.569 5.497,53.191C5.545,58.611 5.597,64.032 5.653,69.452C5.673,71.525 5.692,73.598 5.709,75.671C5.733,78.564 5.763,81.457 5.795,84.349C5.803,85.648 5.803,85.648 5.812,86.974C5.489,90.797 5.489,90.797 7,94C8.849,94.234 10.705,94.413 12.563,94.562C14.08,94.688 14.08,94.688 15.629,94.816C16.411,94.877 17.194,94.938 18,95L18,101L-36,101L-36,95L-23,94L-23,18C-25.569,16.716 -27.766,16.67 -30.625,16.437C-31.628,16.354 -32.631,16.27 -33.664,16.184C-34.435,16.123 -35.206,16.062 -36,16L-36,10C-35.249,9.985 -34.498,9.971 -33.724,9.956C-30.295,9.881 -26.866,9.784 -23.438,9.687C-22.256,9.665 -21.075,9.642 -19.857,9.619C-13.581,9.426 -8.46,9.252 -3,6C-1.022,2.966 -1.022,2.966 -0,-0Z" style="fill:rgb(174,4,15);fill-rule:nonzero;"/>
        </g>
        <g transform="matrix(1,0,0,1,61.0547,44.7344)">
            <path d="M0,0C1.047,-0.003 1.047,-0.003 2.115,-0.006C3.593,-0.007 5.071,-0.003 6.548,0.005C8.805,0.016 11.06,0.005 13.316,-0.008C14.753,-0.006 16.189,-0.004 17.625,0C18.932,0.002 20.239,0.005 21.585,0.007C24.72,0.248 26.405,0.482 28.945,2.266C31.448,6.02 31.398,7.813 30.945,12.266C28.194,16.894 24.841,20.906 21.32,24.953C20.795,25.561 20.271,26.169 19.73,26.795C15.624,31.532 11.427,36.18 7.195,40.805C5.161,43.03 3.136,45.262 1.133,47.516C0.631,48.078 0.13,48.64 -0.387,49.219C-2.76,52.132 -4.891,55.194 -7.055,58.266C0.55,71.529 8.172,84.775 16.087,97.856C16.971,99.318 17.853,100.782 18.732,102.248C19.533,103.579 20.343,104.905 21.163,106.225C23.217,109.619 23.945,111.185 23.945,115.266C19.716,117.38 14.166,116.451 9.514,116.451C7.453,116.453 5.393,116.471 3.332,116.49C2.039,116.492 0.746,116.494 -0.586,116.496C-1.778,116.5 -2.969,116.504 -4.197,116.509C-7.055,116.266 -7.055,116.266 -9.055,114.266C-9.306,112.276 -9.306,112.276 -9.309,109.787C-9.314,108.844 -9.32,107.902 -9.326,106.931C-9.322,105.894 -9.318,104.857 -9.313,103.789C-9.317,102.7 -9.32,101.61 -9.324,100.488C-9.333,96.872 -9.327,93.256 -9.32,89.641C-9.322,87.137 -9.324,84.634 -9.326,82.13C-9.329,76.878 -9.325,71.625 -9.315,66.373C-9.305,60.296 -9.308,54.219 -9.319,48.142C-9.329,42.302 -9.328,36.462 -9.322,30.622C-9.321,28.134 -9.323,25.646 -9.327,23.158C-9.332,19.686 -9.325,16.214 -9.313,12.742C-9.318,11.705 -9.322,10.668 -9.326,9.6C-9.32,8.658 -9.314,7.715 -9.309,6.745C-9.308,5.923 -9.307,5.102 -9.306,4.255C-8.645,-0.971 -4.199,0.007 0,0Z" style="fill:rgb(254,252,252);fill-rule:nonzero;"/>
        </g>
        <g transform="matrix(1,0,0,1,525.188,44.75)">
            <path d="M0,0C0.756,-0.021 1.512,-0.041 2.291,-0.063C7.204,-0.097 10.558,0.524 14.813,3.25C18.543,10.711 14.303,20.58 12.086,27.918C11.696,29.242 11.306,30.567 10.918,31.891C9.895,35.373 8.859,38.85 7.818,42.326C6.175,47.826 4.556,53.333 2.932,58.838C2.34,60.843 1.746,62.848 1.152,64.852C-2.128,75.941 -5.214,87.076 -8.188,98.25C-10.188,97.25 -10.188,97.25 -11.25,94.119C-11.643,92.717 -12.03,91.312 -12.41,89.906C-14.24,83.41 -16.223,76.992 -18.371,70.594C-18.912,68.959 -19.451,67.323 -19.99,65.688C-20.811,63.198 -21.638,60.711 -22.486,58.23C-23.323,55.775 -24.13,53.311 -24.934,50.844C-25.191,50.112 -25.448,49.381 -25.713,48.627C-28.964,38.403 -23.725,28.94 -19.875,19.5C-19.164,17.692 -19.164,17.692 -18.439,15.848C-17.968,14.686 -17.497,13.525 -17.012,12.328C-16.59,11.28 -16.168,10.233 -15.733,9.153C-13.988,5.875 -11.916,3.746 -9.188,1.25C-7.108,-0.829 -2.854,0.019 0,0Z" style="fill:rgb(254,252,252);fill-rule:nonzero;"/>
        </g>
        <g transform="matrix(1,0,0,1,449.938,44.5)">
            <path d="M0,0C1.839,-0.046 1.839,-0.046 3.715,-0.094C7.063,0.5 7.063,0.5 9.133,2.677C11.086,5.535 12.185,7.99 13.277,11.265C13.66,12.4 14.043,13.535 14.438,14.704C14.836,15.922 15.234,17.14 15.645,18.395C16.067,19.669 16.489,20.943 16.913,22.217C17.795,24.881 18.668,27.549 19.537,30.218C20.646,33.623 21.78,37.02 22.92,40.415C23.799,43.043 24.662,45.675 25.522,48.309C26.132,50.169 26.757,52.024 27.382,53.879C30.337,63.081 30.506,68.687 26.777,77.75C26.329,78.852 25.881,79.954 25.42,81.09C24.951,82.215 24.483,83.341 24,84.5C23.528,85.656 23.055,86.813 22.568,88.004C21.408,90.84 20.24,93.671 19.063,96.5L17.063,96.5C12.952,83.948 9.125,71.353 5.621,58.618C3.875,52.304 2.017,46.045 0,39.813C-2.267,32.797 -4.312,25.738 -6.25,18.625C-6.632,17.224 -6.632,17.224 -7.022,15.794C-10.204,3.973 -10.204,3.973 -8.934,1.719C-5.96,-0.097 -3.456,0.029 0,0Z" style="fill:rgb(253,250,250);fill-rule:nonzero;"/>
        </g>
        <g transform="matrix(1,0,0,1,219,118)">
            <path d="M0,0C0.089,3.917 0.141,7.833 0.188,11.75C0.213,12.842 0.238,13.934 0.264,15.059C0.341,23.78 -0.217,32.699 -5.063,40.188C-8.213,43.135 -10.713,43.395 -15.027,43.355C-17,43 -17,43 -19.438,40.688C-23.637,33.465 -22.777,23.243 -21.574,15.125C-19.97,9.455 -16.679,5.519 -12,2C-7.841,0.048 -4.536,-0.057 0,0Z" style="fill:rgb(253,250,250);fill-rule:nonzero;"/>
        </g>
        <g transform="matrix(1,0,0,1,262,80)">
            <path d="M0,0C5.167,3.819 6.36,7.928 7.625,14C8.393,19.942 8.057,26.029 8,32L-16,32C-16,9.6 -16,9.6 -11,2C-7.316,-0.456 -4.277,-0.81 0,0Z" style="fill:rgb(253,249,250);fill-rule:nonzero;"/>
        </g>
        <g transform="matrix(1,0,0,1,583.312,79.5)">
            <path d="M0,0C3.742,0.114 4.537,0.382 7.625,2.813C13.247,11.149 11.863,22.949 11.688,32.5L-11.313,32.5C-11.727,9.719 -11.727,9.719 -6.313,2.5C-3.954,0.141 -3.236,0.131 0,0Z" style="fill:rgb(254,252,252);fill-rule:nonzero;"/>
        </g>
        <g transform="matrix(1,0,0,1,155,35)">
            <path d="M0,0C4.372,2.146 7.26,4.395 9,9C9.201,13.588 8.61,17.012 6.188,20.938C1.914,24.966 -1.787,25.492 -7.523,25.391C-11.585,24.75 -13.227,22.981 -16,20C-18.688,15.969 -18.925,12.737 -18,8C-13.445,0.455 -8.516,-0.942 0,0Z" style="fill:rgb(175,6,17);fill-rule:nonzero;"/>
        </g>
        <g transform="matrix(1,0,0,1,650,35)">
            <path d="M0,0C3.855,1.997 5.598,3.397 8,7C8.677,12.087 8.825,16.557 6.25,21.063C1.827,24.871 -1.785,25.492 -7.523,25.391C-11.585,24.75 -13.227,22.981 -16,20C-18.688,15.969 -18.925,12.737 -18,8C-13.454,0.47 -8.509,-0.966 0,0Z" style="fill:rgb(174,4,15);fill-rule:nonzero;"/>
        </g>
        <g transform="matrix(1,0,0,1,491.75,44.7344)">
            <path d="M0,0L3.25,0.016C4.859,0.008 4.859,0.008 6.5,0C9.25,0.266 9.25,0.266 11.25,2.266C11.615,8.822 9.156,14.89 6.688,20.828C6.358,21.646 6.029,22.464 5.689,23.307C4.886,25.297 4.07,27.282 3.25,29.266C0.645,25.359 -0.477,21.346 -1.875,16.891C-2.152,16.04 -2.429,15.189 -2.715,14.313C-2.977,13.485 -3.238,12.657 -3.508,11.805C-3.746,11.054 -3.985,10.303 -4.231,9.53C-4.812,6.997 -4.974,4.855 -4.75,2.266C-2.75,0.266 -2.75,0.266 -0,-0Z" style="fill:rgb(252,247,248);fill-rule:nonzero;"/>
        </g>
    </g>
</svg>
