<?xml version="1.0" encoding="UTF-8" standalone="no"?>
<!DOCTYPE svg PUBLIC "-//W3C//DTD SVG 1.1//EN" "http://www.w3.org/Graphics/SVG/1.1/DTD/svg11.dtd">
<svg width="100%" height="100%" viewBox="0 0 438 103" version="1.1" xmlns="http://www.w3.org/2000/svg" xmlns:xlink="http://www.w3.org/1999/xlink" xml:space="preserve" xmlns:serif="http://www.serif.com/" style="fill-rule:evenodd;clip-rule:evenodd;stroke-linejoin:round;stroke-miterlimit:2;">
    <g transform="matrix(0.1,0,0,-0.1,-24.5,390.824)">
        <path d="M3004,3895C2681,3825 2514,3461 2664,3155C2726,3028 2850,2933 3001,2896C3087,2875 3249,2875 3321,2896C3544,2962 3681,3149 3681,3388C3681,3491 3668,3553 3627,3634C3528,3833 3252,3949 3004,3895ZM3204,3865C3417,3820 3563,3613 3564,3355C3564,3260 3540,3166 3500,3105C3461,3046 3385,2979 3321,2947C3260,2917 3248,2915 3155,2915C3065,2915 3049,2918 2997,2944C2881,3000 2792,3120 2749,3275C2732,3340 2728,3373 2732,3455C2736,3549 2740,3563 2778,3642C2838,3767 2934,3846 3051,3869C3114,3882 3127,3881 3204,3865Z" style="fill-rule:nonzero;"/>
        <path d="M3784,3878C3781,3874 3799,3867 3822,3863L3865,3854L3870,3460C3876,3030 3875,3033 3936,2961C3987,2901 4032,2885 4155,2885C4276,2885 4311,2897 4385,2961L4420,2992L4420,2900L4520,2900C4575,2900 4620,2902 4620,2905C4620,2908 4600,2915 4575,2921L4530,2932L4530,3880L4428,3879C4329,3878 4327,3878 4370,3866L4415,3854L4418,3495C4421,3092 4417,3065 4355,2993C4308,2938 4248,2910 4179,2910C4100,2910 4053,2940 4015,3014L3985,3074L3982,3476L3979,3879L3883,3882C3831,3884 3786,3882 3784,3878Z" style="fill-rule:nonzero;"/>
        <path d="M280,3868C299,3863 321,3856 328,3854C337,3851 340,3750 340,3392L340,2932L293,2919L245,2905L317,2902C417,2898 538,2904 520,2912C512,2915 493,2921 478,2924L450,2930L450,3259L493,3240C517,3229 570,3216 610,3209C873,3168 1055,3308 1054,3550C1054,3682 990,3784 872,3842L806,3875L525,3877C319,3878 254,3876 280,3868ZM808,3824C915,3771 973,3664 974,3520C974,3447 970,3428 947,3384C894,3281 786,3221 675,3233C600,3241 525,3276 485,3323L450,3364L450,3850L603,3850C748,3850 759,3849 808,3824Z" style="fill-rule:nonzero;"/>
        <path d="M1405,3868C1402,3861 1383,3803 1361,3740C1339,3677 1280,3510 1230,3370C1180,3230 1124,3075 1106,3025L1074,2935L1025,2920L975,2905L1032,2902C1064,2900 1118,2900 1152,2902L1215,2905L1169,2920L1122,2935L1168,3063L1213,3190L1400,3190C1570,3190 1589,3188 1595,3173C1599,3163 1619,3105 1640,3043L1678,2932L1632,2918L1585,2905L1663,2902C1766,2898 1889,2904 1870,2911C1862,2915 1842,2921 1826,2926C1798,2935 1792,2948 1689,3240C1629,3408 1555,3620 1523,3712C1467,3875 1464,3880 1437,3880C1422,3880 1407,3874 1405,3868ZM1489,3480C1534,3352 1570,3245 1570,3243C1570,3241 1493,3240 1399,3240C1240,3240 1228,3241 1235,3258C1239,3267 1275,3370 1316,3485C1357,3601 1393,3701 1395,3709C1398,3717 1402,3721 1405,3719C1407,3716 1445,3609 1489,3480Z" style="fill-rule:nonzero;"/>
        <path d="M1847,3848C1823,3716 1830,3646 1858,3724C1884,3795 1984,3850 2087,3850L2130,3850L2130,3391C2130,2896 2133,2920 2080,2920C2070,2920 2058,2916 2055,2910C2051,2904 2098,2900 2190,2900C2326,2900 2365,2910 2280,2924L2240,2930L2240,3853L2305,3848C2420,3838 2499,3785 2533,3695C2536,3690 2540,3687 2543,3691C2547,3694 2544,3737 2538,3788L2527,3880L1852,3880L1847,3848Z" style="fill-rule:nonzero;"/>
    </g>
</svg>
