<?xml version="1.0" encoding="UTF-8" standalone="no"?>
<!DOCTYPE svg PUBLIC "-//W3C//DTD SVG 1.1//EN" "http://www.w3.org/Graphics/SVG/1.1/DTD/svg11.dtd">
<svg width="100%" height="100%" viewBox="0 0 106 21" version="1.1" xmlns="http://www.w3.org/2000/svg" xmlns:xlink="http://www.w3.org/1999/xlink" xml:space="preserve" xmlns:serif="http://www.serif.com/" style="fill-rule:evenodd;clip-rule:evenodd;stroke-linejoin:round;stroke-miterlimit:2;">
    <path d="M17.702,12.08L20.233,5.186L22.762,12.08L17.702,12.08ZM22.588,1.688C22.411,1.197 22.094,0.774 21.677,0.473C21.261,0.172 20.765,0.009 20.256,0.004C19.747,-0.001 19.249,0.153 18.827,0.446C18.405,0.739 18.08,1.156 17.895,1.643L11.294,19.639L14.942,19.639L16.441,15.562L24.042,15.562L25.556,19.639L29.205,19.639L22.588,1.688Z" style="fill-rule:nonzero;"/>
    <path d="M57.142,13.487C56.692,13.486 56.261,13.302 55.944,12.975C55.626,12.648 55.448,12.205 55.448,11.743C55.448,11.282 55.626,10.839 55.944,10.512C56.261,10.185 56.692,10.001 57.142,10L66.226,10C66.227,12.498 65.316,14.905 63.675,16.748C62.033,18.592 59.779,19.738 57.356,19.96C54.933,20.183 52.517,19.466 50.583,17.951C48.649,16.437 47.337,14.233 46.905,11.775C46.473,9.317 46.953,6.782 48.25,4.668C49.547,2.555 51.567,1.017 53.913,0.356C56.259,-0.305 58.76,-0.04 60.926,1.099C63.091,2.237 64.763,4.166 65.613,6.507L61.836,6.507C61.1,5.319 60.008,4.408 58.725,3.912C57.441,3.416 56.036,3.36 54.719,3.754C53.403,4.148 52.246,4.97 51.423,6.096C50.6,7.222 50.156,8.592 50.156,10.001C50.156,11.409 50.6,12.779 51.423,13.905C52.246,15.031 53.403,15.853 54.719,16.247C56.036,16.641 57.441,16.586 58.725,16.089C60.008,15.593 61.1,14.682 61.836,13.495L57.142,13.487Z" style="fill-rule:nonzero;"/>
    <path d="M45.172,17.909C45.172,18.182 45.12,18.453 45.018,18.706C44.916,18.959 44.767,19.189 44.578,19.383C44.39,19.576 44.166,19.73 43.92,19.835C43.674,19.94 43.41,19.993 43.143,19.993C42.829,19.988 42.52,19.91 42.239,19.766C41.958,19.622 41.711,19.416 41.518,19.161L33.449,6.593L33.449,19.641L30.051,19.641L30.051,2.171C30.051,1.706 30.198,1.254 30.467,0.881C30.737,0.508 31.117,0.234 31.55,0.099C31.983,-0.036 32.447,-0.024 32.873,0.132C33.3,0.288 33.666,0.581 33.918,0.967L41.781,13.25L41.781,0.283L45.179,0.283L45.172,17.909Z" style="fill-rule:nonzero;"/>
    <path d="M6.171,12.09L3.4,12.09L3.4,3.757L6.171,3.757C7.246,3.759 8.276,4.198 9.036,4.98C9.796,5.761 10.222,6.819 10.222,7.923C10.222,9.027 9.796,10.086 9.036,10.867C8.276,11.649 7.246,12.088 6.171,12.09ZM6.171,0.283L0,0.283L0,19.645L3.4,19.645L3.4,15.571L6.171,15.571C8.144,15.569 10.035,14.763 11.429,13.33C12.823,11.896 13.607,9.953 13.607,7.927C13.607,5.901 12.823,3.958 11.429,2.525C10.035,1.092 8.144,0.285 6.171,0.283Z" style="fill-rule:nonzero;"/>
    <path d="M70.958,12.08L73.489,5.187L76.016,12.08L70.958,12.08ZM75.855,1.688C75.679,1.198 75.362,0.774 74.946,0.473C74.53,0.172 74.034,0.009 73.526,0.004C73.017,-0.001 72.519,0.153 72.097,0.446C71.676,0.739 71.351,1.157 71.166,1.643L64.552,19.639L68.198,19.639L69.697,15.562L77.321,15.562L78.814,19.639L82.467,19.639L75.855,1.688Z" style="fill-rule:nonzero;"/>
    <rect x="83.576" y="0.283" width="3.402" height="19.357" style="fill-rule:nonzero;"/>
    <path d="M94.528,12.081L97.063,5.187L99.593,12.081L94.528,12.081ZM99.414,1.688C99.238,1.197 98.921,0.774 98.505,0.473C98.089,0.172 97.594,0.008 97.085,0.003C96.576,-0.002 96.078,0.153 95.656,0.446C95.235,0.739 94.91,1.157 94.726,1.644L88.121,19.639L91.752,19.639L93.249,15.562L100.872,15.562L102.369,19.639L106,19.639L99.414,1.688Z" style="fill-rule:nonzero;"/>
</svg>
