<?xml version="1.0" encoding="UTF-8" standalone="no"?>
<!DOCTYPE svg PUBLIC "-//W3C//DTD SVG 1.1//EN" "http://www.w3.org/Graphics/SVG/1.1/DTD/svg11.dtd">
<svg width="100%" height="100%" viewBox="0 0 101 25" version="1.1" xmlns="http://www.w3.org/2000/svg" xmlns:xlink="http://www.w3.org/1999/xlink" xml:space="preserve" xmlns:serif="http://www.serif.com/" style="fill-rule:evenodd;clip-rule:evenodd;stroke-linejoin:round;stroke-miterlimit:2;">
    <g transform="matrix(1,0,0,1,0,0.00151825)">
        <path d="M10.912,16.927L14.162,23.73L22.345,23.73L18.333,15.884C20.018,15.197 21.456,14.013 22.459,12.489C23.461,10.964 23.981,9.17 23.95,7.343C23.95,2.743 20.66,0 15.846,0L4.333,0L0,23.73L7.662,23.73L8.906,16.927L10.912,16.927ZM10.831,6.226L13.96,6.226C15.806,6.226 16.447,7.037 16.447,8.235C16.447,9.974 15.364,11.055 13.238,11.055L9.949,11.055L10.831,6.226ZM23.02,19.828C23.021,20.385 23.132,20.936 23.347,21.448C23.563,21.961 23.877,22.425 24.273,22.814C24.669,23.203 25.139,23.508 25.654,23.712C26.169,23.916 26.719,24.015 27.272,24.002C27.828,24.018 28.382,23.923 28.901,23.72C29.42,23.518 29.893,23.214 30.293,22.825C30.693,22.436 31.012,21.97 31.23,21.456C31.449,20.941 31.562,20.388 31.565,19.828C31.566,19.268 31.455,18.713 31.238,18.197C31.02,17.681 30.702,17.214 30.301,16.824C29.901,16.434 29.426,16.13 28.905,15.929C28.385,15.728 27.829,15.635 27.272,15.655C26.718,15.639 26.166,15.735 25.65,15.938C25.133,16.141 24.663,16.446 24.266,16.836C23.869,17.225 23.555,17.691 23.341,18.205C23.127,18.719 23.017,19.271 23.02,19.828ZM46.334,0L32.374,23.73L40.076,23.73L42.041,20.29L50.788,20.29L51.389,23.73L59.091,23.73L54.438,0L46.334,0ZM48.741,8.773L49.704,14.222L45.572,14.222L48.741,8.773ZM60.375,19.828C60.375,20.385 60.487,20.936 60.702,21.448C60.917,21.961 61.232,22.425 61.628,22.814C62.025,23.203 62.494,23.508 63.009,23.712C63.524,23.916 64.074,24.015 64.628,24.002C65.184,24.018 65.737,23.922 66.256,23.72C66.775,23.518 67.248,23.213 67.648,22.824C68.048,22.435 68.366,21.97 68.584,21.455C68.803,20.941 68.916,20.388 68.919,19.828C68.92,19.268 68.809,18.713 68.592,18.197C68.375,17.681 68.056,17.214 67.655,16.824C67.254,16.434 66.78,16.13 66.259,15.929C65.739,15.728 65.183,15.635 64.626,15.655C64.072,15.639 63.52,15.736 63.004,15.939C62.488,16.141 62.017,16.447 61.621,16.836C61.224,17.225 60.909,17.691 60.695,18.205C60.481,18.719 60.372,19.271 60.375,19.828ZM79.236,17.317L81.241,6.379L83.127,6.379C86.095,6.379 87.619,8.002 87.619,10.746C87.619,14.689 84.972,17.317 81.121,17.317L79.236,17.317ZM70.45,23.73L80.359,23.73C89.104,23.73 95.362,18.162 95.362,9.739C95.362,3.749 91.672,0.001 84.691,0.001L74.783,0.001L70.45,23.73Z" style="fill-rule:nonzero;"/>
        <path d="M97.551,1.69L97.85,1.69C98.024,1.69 98.084,1.767 98.084,1.88C98.084,2.044 97.982,2.146 97.781,2.146L97.471,2.146L97.551,1.69ZM97.562,2.699L97.869,3.341L98.641,3.341L98.259,2.602C98.418,2.538 98.554,2.426 98.649,2.282C98.744,2.138 98.793,1.969 98.79,1.796C98.792,1.698 98.773,1.601 98.734,1.511C98.695,1.42 98.637,1.34 98.565,1.274C98.492,1.208 98.406,1.159 98.313,1.13C98.22,1.1 98.122,1.091 98.025,1.103L96.938,1.103L96.528,3.344L97.251,3.344L97.369,2.699L97.562,2.699Z" style="fill-rule:nonzero;"/>
        <path d="M97.664,4.477C97.049,4.482 96.456,4.247 96.01,3.822C95.794,3.619 95.622,3.373 95.504,3.101C95.387,2.829 95.326,2.535 95.326,2.238C95.326,1.941 95.387,1.647 95.504,1.375C95.622,1.103 95.794,0.857 96.01,0.654C96.456,0.229 97.049,-0.006 97.664,-0.001C98.279,-0.006 98.872,0.229 99.318,0.654C99.534,0.857 99.706,1.103 99.823,1.375C99.941,1.647 100.002,1.941 100.002,2.238C100.002,2.536 99.941,2.831 99.823,3.104C99.705,3.377 99.532,3.623 99.315,3.827C98.869,4.252 98.276,4.487 97.661,4.482M97.661,0.525C97.197,0.515 96.748,0.69 96.412,1.012C96.077,1.333 95.882,1.776 95.87,2.242C95.882,2.709 96.077,3.151 96.412,3.473C96.748,3.795 97.197,3.97 97.661,3.96C98.126,3.97 98.576,3.796 98.912,3.473C99.248,3.151 99.444,2.707 99.455,2.24C99.443,1.774 99.248,1.331 98.912,1.01C98.577,0.688 98.128,0.513 97.664,0.523" style="fill-rule:nonzero;"/>
    </g>
</svg>
