<?xml version="1.0" encoding="UTF-8" standalone="no"?>
<!DOCTYPE svg PUBLIC "-//W3C//DTD SVG 1.1//EN" "http://www.w3.org/Graphics/SVG/1.1/DTD/svg11.dtd">
<svg width="100%" height="100%" viewBox="0 0 90 26" version="1.1" xmlns="http://www.w3.org/2000/svg" xmlns:xlink="http://www.w3.org/1999/xlink" xml:space="preserve" xmlns:serif="http://www.serif.com/" style="fill-rule:evenodd;clip-rule:evenodd;stroke-linejoin:round;stroke-miterlimit:2;">
    <path d="M59.128,14.445L55.02,0.3L50.553,0.3L50.553,24.7L54.664,24.7L54.664,11.129L58.964,24.7L63.24,24.7L63.24,0.3L59.128,0.3L59.128,14.446L59.128,14.445ZM83.946,20.521L83.946,0.3L79.835,0.3L79.835,24.7L90,24.7L90,20.524L83.947,20.524L83.946,20.521ZM71.563,0.001C70.792,-0.009 70.028,0.141 69.316,0.443C68.604,0.744 67.961,1.19 67.424,1.754C66.869,2.304 66.429,2.964 66.133,3.694C65.836,4.423 65.689,5.206 65.7,5.996L65.7,19.018C65.69,19.803 65.837,20.581 66.13,21.307C66.424,22.032 66.858,22.69 67.408,23.24C68.226,24.079 69.27,24.651 70.408,24.884C71.546,25.116 72.726,24.999 73.799,24.546C74.871,24.093 75.787,23.326 76.43,22.342C77.072,21.357 77.413,20.2 77.408,19.018L77.408,10.404L71.222,10.404L71.222,14.61L73.171,14.61L73.171,18.98C73.172,19.211 73.127,19.439 73.041,19.652C72.954,19.865 72.827,20.058 72.667,20.221C72.507,20.383 72.317,20.512 72.108,20.6C71.898,20.687 71.674,20.731 71.448,20.73C71.224,20.735 71.002,20.692 70.795,20.604C70.589,20.516 70.402,20.386 70.248,20.221C70.086,20.06 69.957,19.867 69.871,19.654C69.785,19.441 69.743,19.212 69.748,18.981L69.748,5.93C69.743,5.699 69.785,5.468 69.871,5.254C69.957,5.039 70.086,4.845 70.248,4.683C70.402,4.517 70.589,4.387 70.795,4.299C71.002,4.211 71.224,4.168 71.448,4.173C71.675,4.173 71.899,4.219 72.109,4.307C72.318,4.396 72.509,4.526 72.669,4.689C72.829,4.853 72.956,5.047 73.042,5.261C73.128,5.475 73.172,5.703 73.171,5.934L73.171,8.809L77.409,8.809L77.409,5.996C77.42,5.21 77.275,4.43 76.983,3.702C76.691,2.975 76.257,2.315 75.709,1.762C75.174,1.194 74.529,0.744 73.816,0.441C73.103,0.138 72.336,-0.012 71.563,0.001ZM41.578,8.271L40.628,15.123L42.528,15.123L41.578,8.271ZM44.269,0.3L48.258,24.699L43.968,24.699L43.139,19.237L40,19.237L39.147,24.699L34.885,24.699L38.925,0.3L44.269,0.3ZM19.666,4.584L17.861,4.584L17.861,11.563L19.666,11.563C19.89,11.568 20.112,11.525 20.319,11.438C20.526,11.35 20.712,11.219 20.866,11.053C21.026,10.892 21.151,10.699 21.236,10.486C21.32,10.274 21.361,10.046 21.357,9.817L21.357,6.354C21.358,5.144 20.82,4.584 19.666,4.584ZM23.544,14.101L26.193,24.699L21.784,24.699L19.65,15.729L17.86,15.729L17.86,24.699L13.75,24.699L13.75,0.3L19.572,0.3C20.408,0.23 21.25,0.352 22.033,0.658C22.817,0.964 23.523,1.445 24.1,2.066C25.01,3.269 25.465,4.766 25.381,6.282L25.381,9.735C25.392,10.554 25.234,11.365 24.918,12.117C24.601,12.87 24.133,13.546 23.544,14.102L23.544,14.101ZM0,4.507L3.721,4.507L3.721,24.7L7.832,24.7L7.832,4.507L11.541,4.507L11.541,0.3L0,0.3L0,4.507ZM28.507,24.7L32.618,24.7L32.618,0.3L28.507,0.3L28.507,24.7Z" style="fill-rule:nonzero;"/>
</svg>
