<?xml version="1.0" encoding="UTF-8" standalone="no"?>
<!DOCTYPE svg PUBLIC "-//W3C//DTD SVG 1.1//EN" "http://www.w3.org/Graphics/SVG/1.1/DTD/svg11.dtd">
<svg width="100%" height="100%" viewBox="0 0 146 33" version="1.1" xmlns="http://www.w3.org/2000/svg" xmlns:xlink="http://www.w3.org/1999/xlink" xml:space="preserve" xmlns:serif="http://www.serif.com/" style="fill-rule:evenodd;clip-rule:evenodd;stroke-linejoin:round;stroke-miterlimit:2;">
    <g id="Medik8_Logo_Black_TM" transform="matrix(1,0,0,1,-44.2077,-103.938)">
        <g id="Group_1">
            <path id="Path_1" d="M185.798,113.204C185.798,115.561 185.087,118.234 182.769,120.106C179.16,118.234 175.602,116.542 175.602,112.848C175.602,110.22 177.293,107.502 180.457,107.502C183.705,107.502 185.798,109.465 185.798,113.204M173.329,129.676C173.329,126.738 174.756,123.8 176.978,122.638C180.942,124.821 185.347,126.693 185.347,130.697C185.348,130.744 185.348,130.79 185.348,130.837C185.348,133.898 182.841,136.423 179.78,136.444C176.583,136.449 173.329,134.622 173.329,129.676M170.616,114.986C170.616,118.55 173.38,120.597 176.538,122.379C172.308,123.761 169.68,126.919 169.68,130.128C169.68,133.601 172.974,136.895 179.476,136.895C184.732,136.895 190.208,134.402 190.208,128.481C190.208,124.206 186.734,122.159 183.17,120.287C187.044,118.815 189.181,116.412 189.181,113.784C189.181,109.555 184.771,107.062 180.277,107.062C175.466,107.057 170.616,110.13 170.616,114.986M152.051,103.938L151.6,103.938L143.677,104.919L143.677,105.365C146.75,105.585 147.105,105.675 147.105,107.502L147.105,134.041C147.105,135.688 146.75,135.778 143.677,135.998L143.677,136.444L155.474,136.444L155.474,135.998C152.401,135.778 152.046,135.688 152.046,134.041L152.046,125.046C153.313,125.004 154.502,125.676 155.119,126.783L161.666,136.444L169.015,136.444L169.015,136.088C167.323,135.869 166.697,134.707 166.167,133.951L158.063,122.909L162.383,117.743C163.584,116.232 164.3,115.07 167.458,114.625L167.458,114.179L157.527,114.179L157.527,114.625C162.693,114.89 162.428,116.897 161.046,118.589L157.798,122.599C156.241,124.426 155.615,124.691 152.051,124.691L152.051,103.938ZM138.618,113.739L138.172,113.739L130.249,114.721L130.249,115.166C133.322,115.386 133.678,115.476 133.678,117.303L133.678,134.047C133.678,135.694 133.322,135.784 130.249,136.004L130.249,136.449L142.047,136.449L142.047,136.004C138.973,135.784 138.618,135.694 138.618,134.047L138.618,113.739ZM132.736,108.438C132.736,110.265 134.163,111.331 135.984,111.331C137.806,111.331 139.233,110.26 139.233,108.438C139.233,106.656 137.806,105.545 135.984,105.545C134.163,105.545 132.736,106.656 132.736,108.438M125.14,103.938L124.694,103.938L116.771,104.919L116.771,105.365C119.844,105.585 120.199,105.675 120.199,107.502L120.199,115.426C118.667,114.328 116.829,113.736 114.943,113.734C109.422,113.734 104.437,118.053 104.437,125.311C104.437,131.989 107.821,136.889 113.522,136.889C116.109,136.85 118.553,135.676 120.199,133.68L120.419,133.68L120.51,136.889L120.955,136.889L128.568,135.908L128.568,135.463C125.495,135.243 125.14,135.152 125.14,133.325L125.14,103.938ZM115.784,135.113C112.445,135.113 109.682,131.729 109.682,125.137C109.682,118.945 111.509,114.185 115.648,114.185C117.521,114.185 120.188,115.296 120.188,120.242L120.188,133.201C119.002,134.354 117.435,135.034 115.784,135.113M92.747,114.185C94.974,114.185 96.486,115.612 96.531,119.305C96.52,120.56 96.401,121.811 96.175,123.044L86.735,123.044C87.09,117.614 89.583,114.185 92.747,114.185M92.967,113.739C87.4,113.739 81.744,117.969 81.744,125.537C81.744,131.549 85.438,136.889 92.521,136.889C95.65,136.89 98.64,135.58 100.76,133.28L100.58,132.925C98.988,134.276 96.966,135.018 94.878,135.017C90.423,135.017 86.684,131.543 86.684,124.42L86.684,123.484L100.664,123.484C100.89,122.611 101.01,121.713 101.02,120.811C101.031,115.561 96.931,113.739 92.967,113.739M71.508,134.041C71.508,135.688 71.153,135.778 68.08,135.998L68.08,136.444L80.058,136.444L80.058,135.998C76.984,135.778 76.629,135.688 76.629,134.041L76.629,107.683C76.629,106.036 76.984,105.946 80.058,105.726L80.058,105.28L71.864,105.28L63.314,129.056L53.293,105.274L44.208,105.274L44.208,105.72C47.817,105.94 48.172,106.03 48.172,107.677L48.172,134.036C48.172,135.682 47.817,135.773 44.208,135.993L44.208,136.438L54.494,136.438L54.494,135.993C49.373,135.773 48.618,135.682 48.618,134.036L48.618,107.186L60.951,136.664L61.261,136.664L71.683,107.231L71.508,134.041Z" style="fill-rule:nonzero;"/>
        </g>
    </g>
</svg>
