<?xml version="1.0" encoding="UTF-8" standalone="no"?>
<!DOCTYPE svg PUBLIC "-//W3C//DTD SVG 1.1//EN" "http://www.w3.org/Graphics/SVG/1.1/DTD/svg11.dtd">
<svg width="100%" height="100%" viewBox="0 0 195 115" version="1.1" xmlns="http://www.w3.org/2000/svg" xmlns:xlink="http://www.w3.org/1999/xlink" xml:space="preserve" xmlns:serif="http://www.serif.com/" style="fill-rule:evenodd;clip-rule:evenodd;stroke-linejoin:round;stroke-miterlimit:2;">
    <g transform="matrix(1,0,0,1,0,0.0289917)">
        <g>
            <path d="M23.583,38.832C24.371,40.021 25.009,41.464 25.479,43.116C25.956,44.812 26.198,46.637 26.198,48.538C26.198,50.455 25.968,52.299 25.511,54.018C25.076,55.661 24.455,57.114 23.666,58.333C22.945,59.445 22.126,60.284 21.161,60.903C20.365,61.417 19.548,61.655 18.627,61.655L9.998,61.576L9.998,35.451L18.795,35.53C19.648,35.53 20.377,35.754 21.091,36.235C22.027,36.866 22.843,37.715 23.583,38.832ZM23.276,101.768C21.891,102.431 18.904,102.858 15.665,102.858L9.998,102.858L9.998,71.693L15.665,71.693C20.445,71.693 24.549,73.017 26.372,75.145C28.44,77.567 29.55,81.713 29.667,87.493C29.724,89.729 29.531,91.906 29.094,93.959C28.699,95.787 28.009,97.396 27.037,98.741C26.132,99.998 24.9,100.99 23.276,101.768ZM34.938,70.006C33.855,68.35 32.431,66.901 30.689,65.683C31.501,64.697 32.245,63.583 32.91,62.352C33.916,60.499 34.721,58.385 35.302,56.081C35.892,53.762 36.191,51.241 36.191,48.646C36.268,42.93 34.831,37.677 31.917,33.029L31.906,33.01C30.449,30.715 28.684,28.879 26.654,27.551C24.415,26.09 21.509,25.379 17.806,25.379L0,25.231L0,113.009L15.665,113.009C17.172,113.009 20.992,112.936 23.913,112.256C26.708,111.61 29.307,110.312 31.637,108.4C33.974,106.489 35.925,103.789 37.441,100.374C38.932,96.992 39.659,92.745 39.659,87.39C39.659,84.216 39.274,81.134 38.512,78.232C37.733,75.255 36.536,72.499 34.938,70.006Z" style="fill:rgb(26,25,25);"/>
        </g>
        <path d="M71.505,71.504L92.008,71.504L92.008,61.574L71.507,61.574L71.589,35.423L97.827,35.423L97.827,25.486L61.607,25.486L61.607,113.017L98.239,113.017L98.239,103.08L71.591,103.08L71.505,71.504Z" style="fill:rgb(26,25,25);"/>
        <g>
            <rect x="121.615" y="25.486" width="9.994" height="87.531" style="fill:rgb(26,25,25);"/>
        </g>
        <g>
            <path d="M188.232,73.491C186.492,71.227 184.539,69.178 182.421,67.397C180.445,65.737 178.438,64.156 176.449,62.682C174.775,61.398 173.156,60.108 171.578,58.814C170.215,57.699 168.989,56.449 167.932,55.103C166.936,53.83 166.122,52.418 165.511,50.91C164.954,49.518 164.67,47.852 164.67,45.961C164.67,44.603 164.752,43.453 164.916,42.547C165.079,41.64 165.362,40.622 165.767,39.511C166.077,38.648 166.538,37.876 167.207,37.109C168.611,35.457 170.739,34.654 173.71,34.654C175.26,34.654 176.548,34.874 177.532,35.303C178.468,35.72 179.23,36.291 179.839,37.035C180.376,37.7 180.751,38.453 180.983,39.342C181.301,40.557 181.522,41.74 181.639,42.863C181.755,43.977 181.785,45.336 181.723,46.908L181.568,50.982L191.64,50.955L191.763,45.608C191.803,44.443 191.746,43.053 191.594,41.479C191.435,39.825 191.102,38.081 190.599,36.297C190.023,34.245 189.056,32.337 187.694,30.579C184.474,26.548 179.77,24.503 173.71,24.503C167.775,24.503 163.034,26.508 159.715,30.349C158.194,31.978 157.069,33.803 156.373,35.763C155.783,37.414 155.347,38.984 155.079,40.444C154.809,41.953 154.676,43.237 154.676,44.373L154.676,46.072C154.676,51.695 156.464,56.855 160.042,61.472C161.567,63.357 163.289,65.084 165.161,66.6C166.865,67.98 168.651,69.377 170.499,70.775C172.374,72.214 174.217,73.674 176.023,75.143C177.616,76.442 179.071,77.939 180.343,79.589C181.55,81.16 182.538,82.995 183.28,85.056C184.008,87.065 184.376,89.51 184.376,92.323C184.376,94.615 184.054,96.526 183.421,98.001C182.816,99.409 182.028,100.54 181.094,101.352C180.098,102.212 179.013,102.82 177.779,103.209C175.335,103.985 172.975,104.081 170.054,103.361C169.025,103.108 168.073,102.594 167.139,101.786C166.215,100.991 165.403,99.765 164.724,98.151C164.013,96.451 163.653,94.083 163.653,91.115L163.653,87.189L153.659,87.189L153.659,91.115C153.659,94.577 154.15,97.888 155.114,100.946C156.158,104.284 157.799,107.025 159.99,109.093L160.042,109.139C162.293,111.192 164.784,112.553 167.446,113.185C169.734,113.726 171.84,114 173.71,114C179.157,114 183.805,112.344 187.552,109.055C192.076,105.005 194.37,99.375 194.37,92.323C194.37,85.19 192.309,78.859 188.232,73.491Z" style="fill:rgb(26,25,25);"/>
        </g>
        <g>
            <path d="M93.994,5.062L90.693,-0.029L69.678,13.597L72.979,18.688L93.994,5.062Z" style="fill:rgb(26,25,25);"/>
        </g>
    </g>
</svg>
